<?xml version="1.0" encoding="UTF-8" standalone="no"?>
<!DOCTYPE svg PUBLIC "-//W3C//DTD SVG 1.1//EN"
 "http://www.w3.org/Graphics/SVG/1.1/DTD/svg11.dtd">
<!-- Generated by graphviz version 2.38.0 (20140413.2041)
 -->
<!-- Title: BaBool.h Pages: 1 -->
<svg width="377pt" height="84pt"
 viewBox="0.00 0.00 377.00 84.00" xmlns="http://www.w3.org/2000/svg" xmlns:xlink="http://www.w3.org/1999/xlink">
<g id="graph0" class="graph" transform="scale(1 1) rotate(0) translate(4 80)">
<title>BaBool.h</title>
<polygon fill="white" stroke="none" points="-4,4 -4,-80 373,-80 373,4 -4,4"/>
<!-- Node1 -->
<g id="node1" class="node"><title>Node1</title>
<polygon fill="#bfbfbf" stroke="black" points="150.5,-56.5 150.5,-75.5 206.5,-75.5 206.5,-56.5 150.5,-56.5"/>
<text text-anchor="middle" x="178.5" y="-63.5" font-family="Helvetica,sans-Serif" font-size="10.00">BaBool.h</text>
</g>
<!-- Node2 -->
<g id="node2" class="node"><title>Node2</title>
<g id="a_node2"><a xlink:href="BaCom_8h.html" target="_top" xlink:title="Communications API. ">
<polygon fill="white" stroke="black" points="0,-0.5 0,-19.5 57,-19.5 57,-0.5 0,-0.5"/>
<text text-anchor="middle" x="28.5" y="-7.5" font-family="Helvetica,sans-Serif" font-size="10.00">BaCom.h</text>
</a>
</g>
</g>
<!-- Node1&#45;&gt;Node2 -->
<g id="edge1" class="edge"><title>Node1&#45;&gt;Node2</title>
<path fill="none" stroke="midnightblue" d="M145.275,-53.0392C117.052,-42.8786 77.2381,-28.5457 52.1567,-19.5164"/>
<polygon fill="midnightblue" stroke="midnightblue" points="144.138,-56.3494 154.732,-56.4435 146.509,-49.7632 144.138,-56.3494"/>
</g>
<!-- Node3 -->
<g id="node3" class="node"><title>Node3</title>
<g id="a_node3"><a xlink:href="BaCore_8h.html" target="_top" xlink:title="OS level API. ">
<polygon fill="white" stroke="black" points="75,-0.5 75,-19.5 132,-19.5 132,-0.5 75,-0.5"/>
<text text-anchor="middle" x="103.5" y="-7.5" font-family="Helvetica,sans-Serif" font-size="10.00">BaCore.h</text>
</a>
</g>
</g>
<!-- Node1&#45;&gt;Node3 -->
<g id="edge2" class="edge"><title>Node1&#45;&gt;Node3</title>
<path fill="none" stroke="midnightblue" d="M158.195,-50.3804C144.639,-40.6204 127.258,-28.1057 115.769,-19.8339"/>
<polygon fill="midnightblue" stroke="midnightblue" points="156.29,-53.3213 166.45,-56.324 160.38,-47.6405 156.29,-53.3213"/>
</g>
<!-- Node4 -->
<g id="node4" class="node"><title>Node4</title>
<g id="a_node4"><a xlink:href="BaGpio_8h.html" target="_top" xlink:title="GPIOs APIs. ">
<polygon fill="white" stroke="black" points="150,-0.5 150,-19.5 207,-19.5 207,-0.5 150,-0.5"/>
<text text-anchor="middle" x="178.5" y="-7.5" font-family="Helvetica,sans-Serif" font-size="10.00">BaGpio.h</text>
</a>
</g>
</g>
<!-- Node1&#45;&gt;Node4 -->
<g id="edge3" class="edge"><title>Node1&#45;&gt;Node4</title>
<path fill="none" stroke="midnightblue" d="M178.5,-45.8045C178.5,-36.9102 178.5,-26.7798 178.5,-19.7511"/>
<polygon fill="midnightblue" stroke="midnightblue" points="175,-46.083 178.5,-56.083 182,-46.083 175,-46.083"/>
</g>
<!-- Node5 -->
<g id="node5" class="node"><title>Node5</title>
<g id="a_node5"><a xlink:href="BaIniParse_8h.html" target="_top" xlink:title="Ini/config files parser based on iniparser from N. ">
<polygon fill="white" stroke="black" points="225.5,-0.5 225.5,-19.5 297.5,-19.5 297.5,-0.5 225.5,-0.5"/>
<text text-anchor="middle" x="261.5" y="-7.5" font-family="Helvetica,sans-Serif" font-size="10.00">BaIniParse.h</text>
</a>
</g>
</g>
<!-- Node1&#45;&gt;Node5 -->
<g id="edge4" class="edge"><title>Node1&#45;&gt;Node5</title>
<path fill="none" stroke="midnightblue" d="M200.599,-50.6221C215.762,-40.7574 235.383,-27.9919 248.198,-19.6545"/>
<polygon fill="midnightblue" stroke="midnightblue" points="198.309,-47.9367 191.835,-56.324 202.126,-53.8042 198.309,-47.9367"/>
</g>
<!-- Node6 -->
<g id="node6" class="node"><title>Node6</title>
<g id="a_node6"><a xlink:href="BaLog_8h.html" target="_top" xlink:title="... ">
<polygon fill="white" stroke="black" points="316,-0.5 316,-19.5 369,-19.5 369,-0.5 316,-0.5"/>
<text text-anchor="middle" x="342.5" y="-7.5" font-family="Helvetica,sans-Serif" font-size="10.00">BaLog.h</text>
</a>
</g>
</g>
<!-- Node1&#45;&gt;Node6 -->
<g id="edge5" class="edge"><title>Node1&#45;&gt;Node6</title>
<path fill="none" stroke="midnightblue" d="M214.02,-53.3044C244.922,-43.1294 288.973,-28.6246 316.635,-19.5164"/>
<polygon fill="midnightblue" stroke="midnightblue" points="212.89,-49.9915 204.486,-56.4435 215.079,-56.6404 212.89,-49.9915"/>
</g>
</g>
</svg>
