<?xml version="1.0" encoding="UTF-8" standalone="no"?>
<!DOCTYPE svg PUBLIC "-//W3C//DTD SVG 1.1//EN"
 "http://www.w3.org/Graphics/SVG/1.1/DTD/svg11.dtd">
<!-- Generated by graphviz version 2.38.0 (20140413.2041)
 -->
<!-- Title: BaBool.h Pages: 1 -->
<svg width="889pt" height="196pt"
 viewBox="0.00 0.00 888.50 196.00" xmlns="http://www.w3.org/2000/svg" xmlns:xlink="http://www.w3.org/1999/xlink">
<g id="graph0" class="graph" transform="scale(1 1) rotate(0) translate(4 192)">
<title>BaBool.h</title>
<polygon fill="white" stroke="none" points="-4,4 -4,-192 884.5,-192 884.5,4 -4,4"/>
<!-- Node2 -->
<g id="node1" class="node"><title>Node2</title>
<polygon fill="#bfbfbf" stroke="black" points="365.5,-168.5 365.5,-187.5 421.5,-187.5 421.5,-168.5 365.5,-168.5"/>
<text text-anchor="middle" x="393.5" y="-175.5" font-family="Helvetica,sans-Serif" font-size="10.00">BaBool.h</text>
</g>
<!-- Node3 -->
<g id="node2" class="node"><title>Node3</title>
<g id="a_node2"><a xlink:href="BaCore_8h.html" target="_top" xlink:title="OS level API. ">
<polygon fill="white" stroke="black" points="181,-112.5 181,-131.5 238,-131.5 238,-112.5 181,-112.5"/>
<text text-anchor="middle" x="209.5" y="-119.5" font-family="Helvetica,sans-Serif" font-size="10.00">BaCore.h</text>
</a>
</g>
</g>
<!-- Node2&#45;&gt;Node3 -->
<g id="edge1" class="edge"><title>Node2&#45;&gt;Node3</title>
<path fill="none" stroke="midnightblue" d="M355.328,-165.797C320.467,-155.566 269.698,-140.667 238.182,-131.418"/>
<polygon fill="midnightblue" stroke="midnightblue" points="354.572,-169.223 365.153,-168.681 356.544,-162.506 354.572,-169.223"/>
</g>
<!-- Node4 -->
<g id="node3" class="node"><title>Node4</title>
<g id="a_node3"><a xlink:href="BaseApi_8h.html" target="_top" xlink:title="Includes the following: ">
<polygon fill="white" stroke="black" points="11.5,-56.5 11.5,-75.5 73.5,-75.5 73.5,-56.5 11.5,-56.5"/>
<text text-anchor="middle" x="42.5" y="-63.5" font-family="Helvetica,sans-Serif" font-size="10.00">BaseApi.h</text>
</a>
</g>
</g>
<!-- Node2&#45;&gt;Node4 -->
<g id="edge6" class="edge"><title>Node2&#45;&gt;Node4</title>
<path fill="none" stroke="midnightblue" d="M355.062,-176.878C277.255,-175.841 104.819,-169.277 61.5,-132 44.9243,-117.736 42.4052,-89.8865 42.2669,-75.7226"/>
<polygon fill="midnightblue" stroke="midnightblue" points="355.352,-180.382 365.389,-176.991 355.428,-173.382 355.352,-180.382"/>
</g>
<!-- Node6 -->
<g id="node5" class="node"><title>Node6</title>
<g id="a_node5"><a xlink:href="HwCom_8h.html" target="_top" xlink:title="Communications API. ">
<polygon fill="white" stroke="black" points="250,-56.5 250,-75.5 309,-75.5 309,-56.5 250,-56.5"/>
<text text-anchor="middle" x="279.5" y="-63.5" font-family="Helvetica,sans-Serif" font-size="10.00">HwCom.h</text>
</a>
</g>
</g>
<!-- Node2&#45;&gt;Node6 -->
<g id="edge17" class="edge"><title>Node2&#45;&gt;Node6</title>
<path fill="none" stroke="midnightblue" d="M377.131,-161.205C352.695,-137.627 307.512,-94.0294 288.404,-75.5914"/>
<polygon fill="midnightblue" stroke="midnightblue" points="374.928,-163.943 384.555,-168.368 379.789,-158.906 374.928,-163.943"/>
</g>
<!-- Node7 -->
<g id="node6" class="node"><title>Node7</title>
<g id="a_node6"><a xlink:href="OsProc_8h.html" target="_top" xlink:title="Process functions. ">
<polygon fill="white" stroke="black" points="165.5,-56.5 165.5,-75.5 223.5,-75.5 223.5,-56.5 165.5,-56.5"/>
<text text-anchor="middle" x="194.5" y="-63.5" font-family="Helvetica,sans-Serif" font-size="10.00">OsProc.h</text>
</a>
</g>
</g>
<!-- Node2&#45;&gt;Node7 -->
<g id="edge22" class="edge"><title>Node2&#45;&gt;Node7</title>
<path fill="none" stroke="midnightblue" d="M355.293,-174.912C298.049,-170.895 194.289,-159.872 171.5,-132 157.71,-115.134 175.152,-89.3963 186.389,-75.9259"/>
<polygon fill="midnightblue" stroke="midnightblue" points="355.201,-178.413 365.411,-175.583 355.664,-171.429 355.201,-178.413"/>
</g>
<!-- Node8 -->
<g id="node7" class="node"><title>Node8</title>
<g id="a_node7"><a xlink:href="BaLog_8h.html" target="_top" xlink:title="Logger API. ">
<polygon fill="white" stroke="black" points="71,-112.5 71,-131.5 124,-131.5 124,-112.5 71,-112.5"/>
<text text-anchor="middle" x="97.5" y="-119.5" font-family="Helvetica,sans-Serif" font-size="10.00">BaLog.h</text>
</a>
</g>
</g>
<!-- Node2&#45;&gt;Node8 -->
<g id="edge7" class="edge"><title>Node2&#45;&gt;Node8</title>
<path fill="none" stroke="midnightblue" d="M355.087,-170.731C305.096,-162.455 215.078,-147.155 138.5,-132 133.925,-131.095 129.075,-130.079 124.373,-129.066"/>
<polygon fill="midnightblue" stroke="midnightblue" points="354.691,-174.213 365.128,-172.387 355.831,-167.306 354.691,-174.213"/>
</g>
<!-- Node10 -->
<g id="node9" class="node"><title>Node10</title>
<g id="a_node9"><a xlink:href="BaUtils_8hpp.html" target="_top" xlink:title="General useful functions . ">
<polygon fill="white" stroke="black" points="360,-112.5 360,-131.5 427,-131.5 427,-112.5 360,-112.5"/>
<text text-anchor="middle" x="393.5" y="-119.5" font-family="Helvetica,sans-Serif" font-size="10.00">BaUtils.hpp</text>
</a>
</g>
</g>
<!-- Node2&#45;&gt;Node10 -->
<g id="edge11" class="edge"><title>Node2&#45;&gt;Node10</title>
<path fill="none" stroke="midnightblue" d="M393.5,-157.805C393.5,-148.91 393.5,-138.78 393.5,-131.751"/>
<polygon fill="midnightblue" stroke="midnightblue" points="390,-158.083 393.5,-168.083 397,-158.083 390,-158.083"/>
</g>
<!-- Node11 -->
<g id="node10" class="node"><title>Node11</title>
<g id="a_node10"><a xlink:href="BaIniParse_8h.html" target="_top" xlink:title="Ini/config files parser based on iniparser from N. ">
<polygon fill="white" stroke="black" points="445.5,-112.5 445.5,-131.5 517.5,-131.5 517.5,-112.5 445.5,-112.5"/>
<text text-anchor="middle" x="481.5" y="-119.5" font-family="Helvetica,sans-Serif" font-size="10.00">BaIniParse.h</text>
</a>
</g>
</g>
<!-- Node2&#45;&gt;Node11 -->
<g id="edge12" class="edge"><title>Node2&#45;&gt;Node11</title>
<path fill="none" stroke="midnightblue" d="M416.477,-162.901C432.613,-152.999 453.681,-140.071 467.396,-131.655"/>
<polygon fill="midnightblue" stroke="midnightblue" points="414.331,-160.111 407.639,-168.324 417.993,-166.077 414.331,-160.111"/>
</g>
<!-- Node12 -->
<g id="node11" class="node"><title>Node12</title>
<g id="a_node11"><a xlink:href="BaSwOsci_8h.html" target="_top" xlink:title="Software oscilloscope. ">
<polygon fill="white" stroke="black" points="536,-112.5 536,-131.5 607,-131.5 607,-112.5 536,-112.5"/>
<text text-anchor="middle" x="571.5" y="-119.5" font-family="Helvetica,sans-Serif" font-size="10.00">BaSwOsci.h</text>
</a>
</g>
</g>
<!-- Node2&#45;&gt;Node12 -->
<g id="edge13" class="edge"><title>Node2&#45;&gt;Node12</title>
<path fill="none" stroke="midnightblue" d="M431.617,-165.436C465.178,-155.255 513.274,-140.664 543.427,-131.516"/>
<polygon fill="midnightblue" stroke="midnightblue" points="430.258,-162.191 421.705,-168.444 432.29,-168.89 430.258,-162.191"/>
</g>
<!-- Node13 -->
<g id="node12" class="node"><title>Node13</title>
<g id="a_node12"><a xlink:href="CtrlPT1_8h.html" target="_top" xlink:title="First order delay element PT1. ">
<polygon fill="white" stroke="black" points="625,-112.5 625,-131.5 682,-131.5 682,-112.5 625,-112.5"/>
<text text-anchor="middle" x="653.5" y="-119.5" font-family="Helvetica,sans-Serif" font-size="10.00">CtrlPT1.h</text>
</a>
</g>
</g>
<!-- Node2&#45;&gt;Node13 -->
<g id="edge14" class="edge"><title>Node2&#45;&gt;Node13</title>
<path fill="none" stroke="midnightblue" d="M431.631,-169.663C475.919,-161.05 551.139,-146.141 615.5,-132 618.546,-131.331 621.724,-130.611 624.889,-129.882"/>
<polygon fill="midnightblue" stroke="midnightblue" points="430.748,-166.269 421.597,-171.609 432.081,-173.141 430.748,-166.269"/>
</g>
<!-- Node14 -->
<g id="node13" class="node"><title>Node14</title>
<g id="a_node13"><a xlink:href="HwPi_8h.html" target="_top" xlink:title="Raspberry Pi model information. ">
<polygon fill="white" stroke="black" points="256,-112.5 256,-131.5 303,-131.5 303,-112.5 256,-112.5"/>
<text text-anchor="middle" x="279.5" y="-119.5" font-family="Helvetica,sans-Serif" font-size="10.00">HwPi.h</text>
</a>
</g>
</g>
<!-- Node2&#45;&gt;Node14 -->
<g id="edge15" class="edge"><title>Node2&#45;&gt;Node14</title>
<path fill="none" stroke="midnightblue" d="M366.258,-164.096C344.96,-154.007 315.958,-140.27 297.479,-131.516"/>
<polygon fill="midnightblue" stroke="midnightblue" points="364.901,-167.326 375.436,-168.444 367.897,-161 364.901,-167.326"/>
</g>
<!-- Node15 -->
<g id="node14" class="node"><title>Node15</title>
<g id="a_node14"><a xlink:href="HwGpio_8h.html" target="_top" xlink:title="GPIOs APIs. ">
<polygon fill="white" stroke="black" points="700,-112.5 700,-131.5 759,-131.5 759,-112.5 700,-112.5"/>
<text text-anchor="middle" x="729.5" y="-119.5" font-family="Helvetica,sans-Serif" font-size="10.00">HwGpio.h</text>
</a>
</g>
</g>
<!-- Node2&#45;&gt;Node15 -->
<g id="edge18" class="edge"><title>Node2&#45;&gt;Node15</title>
<path fill="none" stroke="midnightblue" d="M431.842,-172.144C488.58,-164.743 598.149,-149.625 690.5,-132 693.503,-131.427 696.626,-130.785 699.739,-130.115"/>
<polygon fill="midnightblue" stroke="midnightblue" points="431.346,-168.679 421.879,-173.435 432.245,-175.621 431.346,-168.679"/>
</g>
<!-- Node16 -->
<g id="node15" class="node"><title>Node16</title>
<g id="a_node15"><a xlink:href="OsIpc_8h.html" target="_top" xlink:title="Inter&#45;process communication module. ">
<polygon fill="white" stroke="black" points="830.5,-56.5 830.5,-75.5 880.5,-75.5 880.5,-56.5 830.5,-56.5"/>
<text text-anchor="middle" x="855.5" y="-63.5" font-family="Helvetica,sans-Serif" font-size="10.00">OsIpc.h</text>
</a>
</g>
</g>
<!-- Node2&#45;&gt;Node16 -->
<g id="edge19" class="edge"><title>Node2&#45;&gt;Node16</title>
<path fill="none" stroke="midnightblue" d="M431.843,-176.296C540.245,-173.913 843.011,-164.389 872.5,-132 886.949,-116.13 871.845,-89.494 862.207,-75.7666"/>
<polygon fill="midnightblue" stroke="midnightblue" points="431.602,-172.8 421.678,-176.511 431.75,-179.799 431.602,-172.8"/>
</g>
<!-- Node17 -->
<g id="node16" class="node"><title>Node17</title>
<g id="a_node16"><a xlink:href="OsIpcRegistry_8h.html" target="_top" xlink:title="API for functions and variables registries. ">
<polygon fill="white" stroke="black" points="777.5,-112.5 777.5,-131.5 863.5,-131.5 863.5,-112.5 777.5,-112.5"/>
<text text-anchor="middle" x="820.5" y="-119.5" font-family="Helvetica,sans-Serif" font-size="10.00">OsIpcRegistry.h</text>
</a>
</g>
</g>
<!-- Node2&#45;&gt;Node17 -->
<g id="edge20" class="edge"><title>Node2&#45;&gt;Node17</title>
<path fill="none" stroke="midnightblue" d="M431.921,-172.999C499.781,-165.793 645.243,-149.725 767.5,-132 770.733,-131.531 774.072,-131.023 777.429,-130.493"/>
<polygon fill="midnightblue" stroke="midnightblue" points="431.288,-169.546 421.712,-174.078 432.024,-176.507 431.288,-169.546"/>
</g>
<!-- Node3&#45;&gt;Node4 -->
<g id="edge2" class="edge"><title>Node3&#45;&gt;Node4</title>
<path fill="none" stroke="midnightblue" d="M173.33,-109.304C141.863,-99.1294 97.0057,-84.6246 68.8378,-75.5164"/>
<polygon fill="midnightblue" stroke="midnightblue" points="172.447,-112.697 183.038,-112.444 174.6,-106.037 172.447,-112.697"/>
</g>
<!-- Node3&#45;&gt;Node6 -->
<g id="edge4" class="edge"><title>Node3&#45;&gt;Node6</title>
<path fill="none" stroke="midnightblue" d="M228.814,-106.101C241.412,-96.3824 257.428,-84.0269 268.049,-75.8339"/>
<polygon fill="midnightblue" stroke="midnightblue" points="226.527,-103.445 220.747,-112.324 230.802,-108.987 226.527,-103.445"/>
</g>
<!-- Node3&#45;&gt;Node7 -->
<g id="edge5" class="edge"><title>Node3&#45;&gt;Node7</title>
<path fill="none" stroke="midnightblue" d="M204.332,-102.396C201.823,-93.362 198.927,-82.936 196.931,-75.7511"/>
<polygon fill="midnightblue" stroke="midnightblue" points="200.974,-103.385 207.023,-112.083 207.719,-101.511 200.974,-103.385"/>
</g>
<!-- Node5 -->
<g id="node4" class="node"><title>Node5</title>
<g id="a_node4"><a xlink:href="BaLogMacros_8h.html" target="_top" xlink:title="This header defines macros for logging more easily. ">
<polygon fill="white" stroke="black" points="0,-0.5 0,-19.5 85,-19.5 85,-0.5 0,-0.5"/>
<text text-anchor="middle" x="42.5" y="-7.5" font-family="Helvetica,sans-Serif" font-size="10.00">BaLogMacros.h</text>
</a>
</g>
</g>
<!-- Node4&#45;&gt;Node5 -->
<g id="edge3" class="edge"><title>Node4&#45;&gt;Node5</title>
<path fill="none" stroke="midnightblue" d="M42.5,-45.8045C42.5,-36.9102 42.5,-26.7798 42.5,-19.7511"/>
<polygon fill="midnightblue" stroke="midnightblue" points="39.0001,-46.083 42.5,-56.083 46.0001,-46.083 39.0001,-46.083"/>
</g>
<!-- Node8&#45;&gt;Node4 -->
<g id="edge8" class="edge"><title>Node8&#45;&gt;Node4</title>
<path fill="none" stroke="midnightblue" d="M81.2062,-105.002C71.4594,-95.4329 59.447,-83.6389 51.4131,-75.7511"/>
<polygon fill="midnightblue" stroke="midnightblue" points="78.8301,-107.575 88.4179,-112.083 83.7343,-102.58 78.8301,-107.575"/>
</g>
<!-- Node8&#45;&gt;Node7 -->
<g id="edge10" class="edge"><title>Node8&#45;&gt;Node7</title>
<path fill="none" stroke="midnightblue" d="M121.835,-107.453C139.743,-97.4835 163.554,-84.2279 178.954,-75.6545"/>
<polygon fill="midnightblue" stroke="midnightblue" points="120.12,-104.402 113.085,-112.324 123.525,-110.518 120.12,-104.402"/>
</g>
<!-- Node9 -->
<g id="node8" class="node"><title>Node9</title>
<g id="a_node8"><a xlink:href="BaMsg_8h.html" target="_top" xlink:title="API for messages with state. ">
<polygon fill="white" stroke="black" points="91.5,-56.5 91.5,-75.5 147.5,-75.5 147.5,-56.5 91.5,-56.5"/>
<text text-anchor="middle" x="119.5" y="-63.5" font-family="Helvetica,sans-Serif" font-size="10.00">BaMsg.h</text>
</a>
</g>
</g>
<!-- Node8&#45;&gt;Node9 -->
<g id="edge9" class="edge"><title>Node8&#45;&gt;Node9</title>
<path fill="none" stroke="midnightblue" d="M104.96,-102.69C108.667,-93.589 112.976,-83.0141 115.935,-75.7511"/>
<polygon fill="midnightblue" stroke="midnightblue" points="101.665,-101.502 101.133,-112.083 108.147,-104.143 101.665,-101.502"/>
</g>
<!-- Node14&#45;&gt;Node6 -->
<g id="edge16" class="edge"><title>Node14&#45;&gt;Node6</title>
<path fill="none" stroke="midnightblue" d="M279.5,-101.805C279.5,-92.9102 279.5,-82.7798 279.5,-75.7511"/>
<polygon fill="midnightblue" stroke="midnightblue" points="276,-102.083 279.5,-112.083 283,-102.083 276,-102.083"/>
</g>
<!-- Node17&#45;&gt;Node16 -->
<g id="edge21" class="edge"><title>Node17&#45;&gt;Node16</title>
<path fill="none" stroke="midnightblue" d="M831.8,-103.566C837.822,-94.2747 844.969,-83.2484 849.828,-75.7511"/>
<polygon fill="midnightblue" stroke="midnightblue" points="828.781,-101.788 826.28,-112.083 834.656,-105.595 828.781,-101.788"/>
</g>
</g>
</svg>
