<?xml version="1.0" encoding="UTF-8" standalone="no"?>
<!DOCTYPE svg PUBLIC "-//W3C//DTD SVG 1.1//EN"
 "http://www.w3.org/Graphics/SVG/1.1/DTD/svg11.dtd">
<!-- Generated by graphviz version 2.38.0 (20140413.2041)
 -->
<!-- Title: BaBool.h Pages: 1 -->
<svg width="306pt" height="84pt"
 viewBox="0.00 0.00 305.50 84.00" xmlns="http://www.w3.org/2000/svg" xmlns:xlink="http://www.w3.org/1999/xlink">
<g id="graph0" class="graph" transform="scale(1 1) rotate(0) translate(4 80)">
<title>BaBool.h</title>
<polygon fill="white" stroke="none" points="-4,4 -4,-80 301.5,-80 301.5,4 -4,4"/>
<!-- Node1 -->
<g id="node1" class="node"><title>Node1</title>
<polygon fill="#bfbfbf" stroke="black" points="112.5,-56.5 112.5,-75.5 168.5,-75.5 168.5,-56.5 112.5,-56.5"/>
<text text-anchor="middle" x="140.5" y="-63.5" font-family="Helvetica,sans-Serif" font-size="10.00">BaBool.h</text>
</g>
<!-- Node2 -->
<g id="node2" class="node"><title>Node2</title>
<g id="a_node2"><a xlink:href="BaCom_8h.html" target="_top" xlink:title="Communications API. ">
<polygon fill="white" stroke="black" points="0,-0.5 0,-19.5 57,-19.5 57,-0.5 0,-0.5"/>
<text text-anchor="middle" x="28.5" y="-7.5" font-family="Helvetica,sans-Serif" font-size="10.00">BaCom.h</text>
</a>
</g>
</g>
<!-- Node1&#45;&gt;Node2 -->
<g id="edge1" class="edge"><title>Node1&#45;&gt;Node2</title>
<path fill="none" stroke="midnightblue" d="M113.251,-51.8622C92.4835,-41.8492 64.4766,-28.3458 46.4501,-19.6545"/>
<polygon fill="midnightblue" stroke="midnightblue" points="111.977,-55.1336 122.505,-56.324 115.018,-48.8282 111.977,-55.1336"/>
</g>
<!-- Node3 -->
<g id="node3" class="node"><title>Node3</title>
<g id="a_node3"><a xlink:href="BaCore_8h.html" target="_top" xlink:title="OS level API. ">
<polygon fill="white" stroke="black" points="75,-0.5 75,-19.5 132,-19.5 132,-0.5 75,-0.5"/>
<text text-anchor="middle" x="103.5" y="-7.5" font-family="Helvetica,sans-Serif" font-size="10.00">BaCore.h</text>
</a>
</g>
</g>
<!-- Node1&#45;&gt;Node3 -->
<g id="edge2" class="edge"><title>Node1&#45;&gt;Node3</title>
<path fill="none" stroke="midnightblue" d="M128.554,-47.5656C122.188,-38.2747 114.633,-27.2484 109.496,-19.7511"/>
<polygon fill="midnightblue" stroke="midnightblue" points="125.851,-49.812 134.39,-56.083 131.625,-45.8553 125.851,-49.812"/>
</g>
<!-- Node4 -->
<g id="node4" class="node"><title>Node4</title>
<g id="a_node4"><a xlink:href="BaGpio_8h.html" target="_top" xlink:title="GPIOs APIs. ">
<polygon fill="white" stroke="black" points="150,-0.5 150,-19.5 207,-19.5 207,-0.5 150,-0.5"/>
<text text-anchor="middle" x="178.5" y="-7.5" font-family="Helvetica,sans-Serif" font-size="10.00">BaGpio.h</text>
</a>
</g>
</g>
<!-- Node1&#45;&gt;Node4 -->
<g id="edge3" class="edge"><title>Node1&#45;&gt;Node4</title>
<path fill="none" stroke="midnightblue" d="M152.565,-47.8554C159.145,-38.5048 167.011,-27.3265 172.342,-19.7511"/>
<polygon fill="midnightblue" stroke="midnightblue" points="149.668,-45.8907 146.775,-56.083 155.392,-49.9192 149.668,-45.8907"/>
</g>
<!-- Node5 -->
<g id="node5" class="node"><title>Node5</title>
<g id="a_node5"><a xlink:href="BaIniParse_8h.html" target="_top" xlink:title="Ini/config files parser based on iniparser from N. ">
<polygon fill="white" stroke="black" points="225.5,-0.5 225.5,-19.5 297.5,-19.5 297.5,-0.5 225.5,-0.5"/>
<text text-anchor="middle" x="261.5" y="-7.5" font-family="Helvetica,sans-Serif" font-size="10.00">BaIniParse.h</text>
</a>
</g>
</g>
<!-- Node1&#45;&gt;Node5 -->
<g id="edge4" class="edge"><title>Node1&#45;&gt;Node5</title>
<path fill="none" stroke="midnightblue" d="M168.806,-52.3678C191.465,-42.2553 222.626,-28.3486 242.417,-19.5164"/>
<polygon fill="midnightblue" stroke="midnightblue" points="167.378,-49.1719 159.673,-56.4435 170.231,-55.5643 167.378,-49.1719"/>
</g>
</g>
</svg>
