<?xml version="1.0" encoding="UTF-8" standalone="no"?>
<!DOCTYPE svg PUBLIC "-//W3C//DTD SVG 1.1//EN"
 "http://www.w3.org/Graphics/SVG/1.1/DTD/svg11.dtd">
<!-- Generated by graphviz version 2.38.0 (20140413.2041)
 -->
<!-- Title: BaBool.h Pages: 1 -->
<svg width="738pt" height="196pt"
 viewBox="0.00 0.00 738.00 196.00" xmlns="http://www.w3.org/2000/svg" xmlns:xlink="http://www.w3.org/1999/xlink">
<g id="graph0" class="graph" transform="scale(1 1) rotate(0) translate(4 192)">
<title>BaBool.h</title>
<polygon fill="white" stroke="none" points="-4,4 -4,-192 734,-192 734,4 -4,4"/>
<!-- Node1 -->
<g id="node1" class="node"><title>Node1</title>
<polygon fill="#bfbfbf" stroke="black" points="280.5,-168.5 280.5,-187.5 336.5,-187.5 336.5,-168.5 280.5,-168.5"/>
<text text-anchor="middle" x="308.5" y="-175.5" font-family="Helvetica,sans-Serif" font-size="10.00">BaBool.h</text>
</g>
<!-- Node2 -->
<g id="node2" class="node"><title>Node2</title>
<g id="a_node2"><a xlink:href="BaCom_8h.html" target="_top" xlink:title="Communications API. ">
<polygon fill="white" stroke="black" points="53,-56.5 53,-75.5 110,-75.5 110,-56.5 53,-56.5"/>
<text text-anchor="middle" x="81.5" y="-63.5" font-family="Helvetica,sans-Serif" font-size="10.00">BaCom.h</text>
</a>
</g>
</g>
<!-- Node1&#45;&gt;Node2 -->
<g id="edge1" class="edge"><title>Node1&#45;&gt;Node2</title>
<path fill="none" stroke="midnightblue" d="M270.075,-174.662C231.866,-170.734 172.974,-160.208 130.5,-132 108.603,-117.458 92.6585,-89.7344 85.5758,-75.6602"/>
<polygon fill="midnightblue" stroke="midnightblue" points="269.993,-178.169 280.273,-175.604 270.637,-171.199 269.993,-178.169"/>
</g>
<!-- Node3 -->
<g id="node3" class="node"><title>Node3</title>
<g id="a_node3"><a xlink:href="BaCore_8h.html" target="_top" xlink:title="OS level API. ">
<polygon fill="white" stroke="black" points="148,-112.5 148,-131.5 205,-131.5 205,-112.5 148,-112.5"/>
<text text-anchor="middle" x="176.5" y="-119.5" font-family="Helvetica,sans-Serif" font-size="10.00">BaCore.h</text>
</a>
</g>
</g>
<!-- Node1&#45;&gt;Node3 -->
<g id="edge2" class="edge"><title>Node1&#45;&gt;Node3</title>
<path fill="none" stroke="midnightblue" d="M278.281,-164.638C253.51,-154.504 219.1,-140.427 197.318,-131.516"/>
<polygon fill="midnightblue" stroke="midnightblue" points="277.003,-167.897 287.584,-168.444 279.654,-161.418 277.003,-167.897"/>
</g>
<!-- Node4 -->
<g id="node4" class="node"><title>Node4</title>
<g id="a_node4"><a xlink:href="BaseApi_8h.html" target="_top" xlink:title="Includes the following: ">
<polygon fill="white" stroke="black" points="277.5,-56.5 277.5,-75.5 339.5,-75.5 339.5,-56.5 277.5,-56.5"/>
<text text-anchor="middle" x="308.5" y="-63.5" font-family="Helvetica,sans-Serif" font-size="10.00">BaseApi.h</text>
</a>
</g>
</g>
<!-- Node1&#45;&gt;Node4 -->
<g id="edge8" class="edge"><title>Node1&#45;&gt;Node4</title>
<path fill="none" stroke="midnightblue" d="M308.5,-158.348C308.5,-134.254 308.5,-93.3079 308.5,-75.5914"/>
<polygon fill="midnightblue" stroke="midnightblue" points="305,-158.368 308.5,-168.368 312,-158.369 305,-158.368"/>
</g>
<!-- Node6 -->
<g id="node6" class="node"><title>Node6</title>
<g id="a_node6"><a xlink:href="BaProc_8h.html" target="_top" xlink:title="Process functions. ">
<polygon fill="white" stroke="black" points="138,-56.5 138,-75.5 195,-75.5 195,-56.5 138,-56.5"/>
<text text-anchor="middle" x="166.5" y="-63.5" font-family="Helvetica,sans-Serif" font-size="10.00">BaProc.h</text>
</a>
</g>
</g>
<!-- Node1&#45;&gt;Node6 -->
<g id="edge14" class="edge"><title>Node1&#45;&gt;Node6</title>
<path fill="none" stroke="midnightblue" d="M270.484,-172.324C225.445,-165.911 154.481,-152.762 138.5,-132 124.86,-114.279 144.766,-88.902 157.415,-75.7116"/>
<polygon fill="midnightblue" stroke="midnightblue" points="270.116,-175.806 280.499,-173.7 271.069,-168.871 270.116,-175.806"/>
</g>
<!-- Node7 -->
<g id="node7" class="node"><title>Node7</title>
<g id="a_node7"><a xlink:href="BaGpio_8h.html" target="_top" xlink:title="GPIOs APIs. ">
<polygon fill="white" stroke="black" points="223,-112.5 223,-131.5 280,-131.5 280,-112.5 223,-112.5"/>
<text text-anchor="middle" x="251.5" y="-119.5" font-family="Helvetica,sans-Serif" font-size="10.00">BaGpio.h</text>
</a>
</g>
</g>
<!-- Node1&#45;&gt;Node7 -->
<g id="edge7" class="edge"><title>Node1&#45;&gt;Node7</title>
<path fill="none" stroke="midnightblue" d="M291.879,-161.253C281.766,-151.673 269.223,-139.791 260.825,-131.834"/>
<polygon fill="midnightblue" stroke="midnightblue" points="289.675,-163.987 299.342,-168.324 294.49,-158.906 289.675,-163.987"/>
</g>
<!-- Node8 -->
<g id="node8" class="node"><title>Node8</title>
<g id="a_node8"><a xlink:href="BaLog_8h.html" target="_top" xlink:title="Logger API. ">
<polygon fill="white" stroke="black" points="513,-112.5 513,-131.5 566,-131.5 566,-112.5 513,-112.5"/>
<text text-anchor="middle" x="539.5" y="-119.5" font-family="Helvetica,sans-Serif" font-size="10.00">BaLog.h</text>
</a>
</g>
</g>
<!-- Node1&#45;&gt;Node8 -->
<g id="edge9" class="edge"><title>Node1&#45;&gt;Node8</title>
<path fill="none" stroke="midnightblue" d="M346.585,-168.426C385.925,-159.52 449.076,-145.081 503.5,-132 506.507,-131.277 509.652,-130.509 512.777,-129.738"/>
<polygon fill="midnightblue" stroke="midnightblue" points="345.614,-165.058 336.632,-170.677 347.157,-171.885 345.614,-165.058"/>
</g>
<!-- Node10 -->
<g id="node10" class="node"><title>Node10</title>
<g id="a_node10"><a xlink:href="BaUtils_8hpp.html" target="_top" xlink:title="General useful functions . ">
<polygon fill="white" stroke="black" points="337,-112.5 337,-131.5 404,-131.5 404,-112.5 337,-112.5"/>
<text text-anchor="middle" x="370.5" y="-119.5" font-family="Helvetica,sans-Serif" font-size="10.00">BaUtils.hpp</text>
</a>
</g>
</g>
<!-- Node1&#45;&gt;Node10 -->
<g id="edge12" class="edge"><title>Node1&#45;&gt;Node10</title>
<path fill="none" stroke="midnightblue" d="M326.254,-161.537C337.308,-151.909 351.131,-139.869 360.357,-131.834"/>
<polygon fill="midnightblue" stroke="midnightblue" points="323.703,-159.117 318.461,-168.324 328.301,-164.395 323.703,-159.117"/>
</g>
<!-- Node11 -->
<g id="node11" class="node"><title>Node11</title>
<g id="a_node11"><a xlink:href="BaIniParse_8h.html" target="_top" xlink:title="Ini/config files parser based on iniparser from N. ">
<polygon fill="white" stroke="black" points="422.5,-112.5 422.5,-131.5 494.5,-131.5 494.5,-112.5 422.5,-112.5"/>
<text text-anchor="middle" x="458.5" y="-119.5" font-family="Helvetica,sans-Serif" font-size="10.00">BaIniParse.h</text>
</a>
</g>
</g>
<!-- Node1&#45;&gt;Node11 -->
<g id="edge13" class="edge"><title>Node1&#45;&gt;Node11</title>
<path fill="none" stroke="midnightblue" d="M341.725,-165.039C369.948,-154.879 409.762,-140.546 434.843,-131.516"/>
<polygon fill="midnightblue" stroke="midnightblue" points="340.491,-161.763 332.268,-168.444 342.862,-168.349 340.491,-161.763"/>
</g>
<!-- Node12 -->
<g id="node12" class="node"><title>Node12</title>
<g id="a_node12"><a xlink:href="BaRPi_8h.html" target="_top" xlink:title="... ">
<polygon fill="white" stroke="black" points="0,-112.5 0,-131.5 53,-131.5 53,-112.5 0,-112.5"/>
<text text-anchor="middle" x="26.5" y="-119.5" font-family="Helvetica,sans-Serif" font-size="10.00">BaRPi.h</text>
</a>
</g>
</g>
<!-- Node1&#45;&gt;Node12 -->
<g id="edge15" class="edge"><title>Node1&#45;&gt;Node12</title>
<path fill="none" stroke="midnightblue" d="M270.379,-170.265C222.808,-161.772 139.004,-146.52 67.5,-132 62.9293,-131.072 58.0814,-130.045 53.3806,-129.027"/>
<polygon fill="midnightblue" stroke="midnightblue" points="269.787,-173.714 280.246,-172.022 271.015,-166.823 269.787,-173.714"/>
</g>
<!-- Node13 -->
<g id="node13" class="node"><title>Node13</title>
<g id="a_node13"><a xlink:href="BaSwOsci_8h.html" target="_top" xlink:title="Software oscilloscope. ">
<polygon fill="white" stroke="black" points="584,-112.5 584,-131.5 655,-131.5 655,-112.5 584,-112.5"/>
<text text-anchor="middle" x="619.5" y="-119.5" font-family="Helvetica,sans-Serif" font-size="10.00">BaSwOsci.h</text>
</a>
</g>
</g>
<!-- Node1&#45;&gt;Node13 -->
<g id="edge17" class="edge"><title>Node1&#45;&gt;Node13</title>
<path fill="none" stroke="midnightblue" d="M346.702,-170.99C398.596,-162.728 494.222,-147.157 575.5,-132 578.259,-131.485 581.113,-130.938 583.979,-130.376"/>
<polygon fill="midnightblue" stroke="midnightblue" points="345.946,-167.566 336.619,-172.591 347.044,-174.48 345.946,-167.566"/>
</g>
<!-- Node14 -->
<g id="node14" class="node"><title>Node14</title>
<g id="a_node14"><a xlink:href="CtrlPT1_8h.html" target="_top" xlink:title="First order delay element PT1. ">
<polygon fill="white" stroke="black" points="673,-112.5 673,-131.5 730,-131.5 730,-112.5 673,-112.5"/>
<text text-anchor="middle" x="701.5" y="-119.5" font-family="Helvetica,sans-Serif" font-size="10.00">CtrlPT1.h</text>
</a>
</g>
</g>
<!-- Node1&#45;&gt;Node14 -->
<g id="edge18" class="edge"><title>Node1&#45;&gt;Node14</title>
<path fill="none" stroke="midnightblue" d="M347.087,-173.563C412.66,-167.401 549.88,-153.115 664.5,-132 667.231,-131.497 670.061,-130.917 672.885,-130.298"/>
<polygon fill="midnightblue" stroke="midnightblue" points="346.452,-170.107 336.818,-174.516 347.099,-177.077 346.452,-170.107"/>
</g>
<!-- Node3&#45;&gt;Node2 -->
<g id="edge3" class="edge"><title>Node3&#45;&gt;Node2</title>
<path fill="none" stroke="midnightblue" d="M152.182,-107.177C134.701,-97.2407 111.67,-84.1492 96.7255,-75.6545"/>
<polygon fill="midnightblue" stroke="midnightblue" points="150.813,-110.425 161.237,-112.324 154.273,-104.339 150.813,-110.425"/>
</g>
<!-- Node3&#45;&gt;Node4 -->
<g id="edge4" class="edge"><title>Node3&#45;&gt;Node4</title>
<path fill="none" stroke="midnightblue" d="M206.719,-108.638C231.49,-98.504 265.9,-84.4274 287.682,-75.5164"/>
<polygon fill="midnightblue" stroke="midnightblue" points="205.346,-105.418 197.416,-112.444 207.997,-111.897 205.346,-105.418"/>
</g>
<!-- Node3&#45;&gt;Node6 -->
<g id="edge6" class="edge"><title>Node3&#45;&gt;Node6</title>
<path fill="none" stroke="midnightblue" d="M173,-102.101C171.34,-93.1357 169.437,-82.8579 168.121,-75.7511"/>
<polygon fill="midnightblue" stroke="midnightblue" points="169.586,-102.888 174.849,-112.083 176.469,-101.613 169.586,-102.888"/>
</g>
<!-- Node5 -->
<g id="node5" class="node"><title>Node5</title>
<g id="a_node5"><a xlink:href="BaLogMacros_8h.html" target="_top" xlink:title="This header defines macros for logging more easily. ">
<polygon fill="white" stroke="black" points="266,-0.5 266,-19.5 351,-19.5 351,-0.5 266,-0.5"/>
<text text-anchor="middle" x="308.5" y="-7.5" font-family="Helvetica,sans-Serif" font-size="10.00">BaLogMacros.h</text>
</a>
</g>
</g>
<!-- Node4&#45;&gt;Node5 -->
<g id="edge5" class="edge"><title>Node4&#45;&gt;Node5</title>
<path fill="none" stroke="midnightblue" d="M308.5,-45.8045C308.5,-36.9102 308.5,-26.7798 308.5,-19.7511"/>
<polygon fill="midnightblue" stroke="midnightblue" points="305,-46.083 308.5,-56.083 312,-46.083 305,-46.083"/>
</g>
<!-- Node8&#45;&gt;Node4 -->
<g id="edge10" class="edge"><title>Node8&#45;&gt;Node4</title>
<path fill="none" stroke="midnightblue" d="M502.956,-111.903C439.201,-96.6257 376.253,-82.2762 339.612,-73.9964"/>
<polygon fill="midnightblue" stroke="midnightblue" points="502.236,-115.329 512.777,-114.262 503.871,-108.523 502.236,-115.329"/>
</g>
<!-- Node9 -->
<g id="node9" class="node"><title>Node9</title>
<g id="a_node9"><a xlink:href="BaMsg_8h.html" target="_top" xlink:title="API for messages with state. ">
<polygon fill="white" stroke="black" points="511.5,-56.5 511.5,-75.5 567.5,-75.5 567.5,-56.5 511.5,-56.5"/>
<text text-anchor="middle" x="539.5" y="-63.5" font-family="Helvetica,sans-Serif" font-size="10.00">BaMsg.h</text>
</a>
</g>
</g>
<!-- Node8&#45;&gt;Node9 -->
<g id="edge11" class="edge"><title>Node8&#45;&gt;Node9</title>
<path fill="none" stroke="midnightblue" d="M539.5,-101.805C539.5,-92.9102 539.5,-82.7798 539.5,-75.7511"/>
<polygon fill="midnightblue" stroke="midnightblue" points="536,-102.083 539.5,-112.083 543,-102.083 536,-102.083"/>
</g>
<!-- Node12&#45;&gt;Node2 -->
<g id="edge16" class="edge"><title>Node12&#45;&gt;Node2</title>
<path fill="none" stroke="midnightblue" d="M42.7938,-105.002C52.5406,-95.4329 64.553,-83.6389 72.5869,-75.7511"/>
<polygon fill="midnightblue" stroke="midnightblue" points="40.2657,-102.58 35.5821,-112.083 45.1699,-107.575 40.2657,-102.58"/>
</g>
</g>
</svg>
