<?xml version="1.0" encoding="UTF-8" standalone="no"?>
<!DOCTYPE svg PUBLIC "-//W3C//DTD SVG 1.1//EN"
 "http://www.w3.org/Graphics/SVG/1.1/DTD/svg11.dtd">
<!-- Generated by graphviz version 2.38.0 (20140413.2041)
 -->
<!-- Title: BaBool.h Pages: 1 -->
<svg width="523pt" height="196pt"
 viewBox="0.00 0.00 522.50 196.00" xmlns="http://www.w3.org/2000/svg" xmlns:xlink="http://www.w3.org/1999/xlink">
<g id="graph0" class="graph" transform="scale(1 1) rotate(0) translate(4 192)">
<title>BaBool.h</title>
<polygon fill="white" stroke="none" points="-4,4 -4,-192 518.5,-192 518.5,4 -4,4"/>
<!-- Node1 -->
<g id="node1" class="node"><title>Node1</title>
<polygon fill="#bfbfbf" stroke="black" points="180.5,-168.5 180.5,-187.5 236.5,-187.5 236.5,-168.5 180.5,-168.5"/>
<text text-anchor="middle" x="208.5" y="-175.5" font-family="Helvetica,sans-Serif" font-size="10.00">BaBool.h</text>
</g>
<!-- Node2 -->
<g id="node2" class="node"><title>Node2</title>
<g id="a_node2"><a xlink:href="BaCom_8h.html" target="_top" xlink:title="Communications API. ">
<polygon fill="white" stroke="black" points="0,-56.5 0,-75.5 57,-75.5 57,-56.5 0,-56.5"/>
<text text-anchor="middle" x="28.5" y="-63.5" font-family="Helvetica,sans-Serif" font-size="10.00">BaCom.h</text>
</a>
</g>
</g>
<!-- Node1&#45;&gt;Node2 -->
<g id="edge1" class="edge"><title>Node1&#45;&gt;Node2</title>
<path fill="none" stroke="midnightblue" d="M170.061,-176.432C133.74,-173.809 80.0982,-164.215 47.5,-132 32.113,-116.794 29.0294,-89.8676 28.512,-75.9242"/>
<polygon fill="midnightblue" stroke="midnightblue" points="170.089,-179.939 180.274,-177.019 170.492,-172.95 170.089,-179.939"/>
</g>
<!-- Node3 -->
<g id="node3" class="node"><title>Node3</title>
<g id="a_node3"><a xlink:href="BaCore_8h.html" target="_top" xlink:title="OS level API. ">
<polygon fill="white" stroke="black" points="57,-112.5 57,-131.5 114,-131.5 114,-112.5 57,-112.5"/>
<text text-anchor="middle" x="85.5" y="-119.5" font-family="Helvetica,sans-Serif" font-size="10.00">BaCore.h</text>
</a>
</g>
</g>
<!-- Node1&#45;&gt;Node3 -->
<g id="edge2" class="edge"><title>Node1&#45;&gt;Node3</title>
<path fill="none" stroke="midnightblue" d="M179.727,-164.368C156.693,-154.255 125.016,-140.349 104.899,-131.516"/>
<polygon fill="midnightblue" stroke="midnightblue" points="178.447,-167.628 189.01,-168.444 181.261,-161.219 178.447,-167.628"/>
</g>
<!-- Node4 -->
<g id="node4" class="node"><title>Node4</title>
<g id="a_node4"><a xlink:href="BaseApi_8h.html" target="_top" xlink:title="Includes the following: ">
<polygon fill="white" stroke="black" points="150.5,-56.5 150.5,-75.5 212.5,-75.5 212.5,-56.5 150.5,-56.5"/>
<text text-anchor="middle" x="181.5" y="-63.5" font-family="Helvetica,sans-Serif" font-size="10.00">BaseApi.h</text>
</a>
</g>
</g>
<!-- Node1&#45;&gt;Node4 -->
<g id="edge13" class="edge"><title>Node1&#45;&gt;Node4</title>
<path fill="none" stroke="midnightblue" d="M203.922,-158.348C198.008,-134.254 187.957,-93.3079 183.609,-75.5914"/>
<polygon fill="midnightblue" stroke="midnightblue" points="200.598,-159.491 206.381,-168.368 207.397,-157.822 200.598,-159.491"/>
</g>
<!-- Node6 -->
<g id="node6" class="node"><title>Node6</title>
<g id="a_node6"><a xlink:href="BaProc_8h.html" target="_top" xlink:title="Process functions. ">
<polygon fill="white" stroke="black" points="75,-56.5 75,-75.5 132,-75.5 132,-56.5 75,-56.5"/>
<text text-anchor="middle" x="103.5" y="-63.5" font-family="Helvetica,sans-Serif" font-size="10.00">BaProc.h</text>
</a>
</g>
</g>
<!-- Node1&#45;&gt;Node6 -->
<g id="edge14" class="edge"><title>Node1&#45;&gt;Node6</title>
<path fill="none" stroke="midnightblue" d="M193.129,-160.897C170.555,-137.249 129.224,-93.9493 111.701,-75.5914"/>
<polygon fill="midnightblue" stroke="midnightblue" points="190.824,-163.552 200.261,-168.368 195.888,-158.718 190.824,-163.552"/>
</g>
<!-- Node7 -->
<g id="node7" class="node"><title>Node7</title>
<g id="a_node7"><a xlink:href="BaGpio_8h.html" target="_top" xlink:title="GPIOs APIs. ">
<polygon fill="white" stroke="black" points="209,-112.5 209,-131.5 266,-131.5 266,-112.5 209,-112.5"/>
<text text-anchor="middle" x="237.5" y="-119.5" font-family="Helvetica,sans-Serif" font-size="10.00">BaGpio.h</text>
</a>
</g>
</g>
<!-- Node1&#45;&gt;Node7 -->
<g id="edge7" class="edge"><title>Node1&#45;&gt;Node7</title>
<path fill="none" stroke="midnightblue" d="M218.176,-158.983C223.098,-149.817 228.858,-139.092 232.8,-131.751"/>
<polygon fill="midnightblue" stroke="midnightblue" points="214.937,-157.617 213.289,-168.083 221.104,-160.929 214.937,-157.617"/>
</g>
<!-- Node8 -->
<g id="node8" class="node"><title>Node8</title>
<g id="a_node8"><a xlink:href="BaUtils_8hpp.html" target="_top" xlink:title="General useful functions . ">
<polygon fill="white" stroke="black" points="284,-112.5 284,-131.5 351,-131.5 351,-112.5 284,-112.5"/>
<text text-anchor="middle" x="317.5" y="-119.5" font-family="Helvetica,sans-Serif" font-size="10.00">BaUtils.hpp</text>
</a>
</g>
</g>
<!-- Node1&#45;&gt;Node8 -->
<g id="edge8" class="edge"><title>Node1&#45;&gt;Node8</title>
<path fill="none" stroke="midnightblue" d="M235.019,-163.862C255.23,-153.849 282.487,-140.346 300.031,-131.655"/>
<polygon fill="midnightblue" stroke="midnightblue" points="233.42,-160.748 226.013,-168.324 236.527,-167.021 233.42,-160.748"/>
</g>
<!-- Node9 -->
<g id="node9" class="node"><title>Node9</title>
<g id="a_node9"><a xlink:href="BaIniParse_8h.html" target="_top" xlink:title="Ini/config files parser based on iniparser from N. ">
<polygon fill="white" stroke="black" points="369.5,-112.5 369.5,-131.5 441.5,-131.5 441.5,-112.5 369.5,-112.5"/>
<text text-anchor="middle" x="405.5" y="-119.5" font-family="Helvetica,sans-Serif" font-size="10.00">BaIniParse.h</text>
</a>
</g>
</g>
<!-- Node1&#45;&gt;Node9 -->
<g id="edge9" class="edge"><title>Node1&#45;&gt;Node9</title>
<path fill="none" stroke="midnightblue" d="M246.695,-166.53C283.916,-156.328 339.813,-141.006 374.402,-131.524"/>
<polygon fill="midnightblue" stroke="midnightblue" points="245.444,-163.244 236.725,-169.263 247.295,-169.995 245.444,-163.244"/>
</g>
<!-- Node10 -->
<g id="node10" class="node"><title>Node10</title>
<g id="a_node10"><a xlink:href="BaLog_8h.html" target="_top" xlink:title="Logger API. ">
<polygon fill="white" stroke="black" points="460,-112.5 460,-131.5 513,-131.5 513,-112.5 460,-112.5"/>
<text text-anchor="middle" x="486.5" y="-119.5" font-family="Helvetica,sans-Serif" font-size="10.00">BaLog.h</text>
</a>
</g>
</g>
<!-- Node1&#45;&gt;Node10 -->
<g id="edge10" class="edge"><title>Node1&#45;&gt;Node10</title>
<path fill="none" stroke="midnightblue" d="M246.463,-170.68C294.236,-162.558 378.727,-147.629 450.5,-132 453.522,-131.342 456.676,-130.614 459.806,-129.866"/>
<polygon fill="midnightblue" stroke="midnightblue" points="245.835,-167.237 236.559,-172.356 247.003,-174.138 245.835,-167.237"/>
</g>
<!-- Node3&#45;&gt;Node2 -->
<g id="edge3" class="edge"><title>Node3&#45;&gt;Node2</title>
<path fill="none" stroke="midnightblue" d="M68.8785,-105.253C58.766,-95.6731 46.2234,-83.7906 37.8247,-75.8339"/>
<polygon fill="midnightblue" stroke="midnightblue" points="66.6753,-107.987 76.342,-112.324 71.4895,-102.906 66.6753,-107.987"/>
</g>
<!-- Node3&#45;&gt;Node4 -->
<g id="edge4" class="edge"><title>Node3&#45;&gt;Node4</title>
<path fill="none" stroke="midnightblue" d="M110.074,-107.177C127.739,-97.2407 151.013,-84.1492 166.114,-75.6545"/>
<polygon fill="midnightblue" stroke="midnightblue" points="107.924,-104.371 100.924,-112.324 111.356,-110.472 107.924,-104.371"/>
</g>
<!-- Node3&#45;&gt;Node6 -->
<g id="edge6" class="edge"><title>Node3&#45;&gt;Node6</title>
<path fill="none" stroke="midnightblue" d="M91.7015,-102.396C94.7127,-93.362 98.188,-82.936 100.583,-75.7511"/>
<polygon fill="midnightblue" stroke="midnightblue" points="88.3143,-101.489 88.4723,-112.083 94.9551,-103.703 88.3143,-101.489"/>
</g>
<!-- Node5 -->
<g id="node5" class="node"><title>Node5</title>
<g id="a_node5"><a xlink:href="BaLogMacros_8h.html" target="_top" xlink:title="This header defines macros for logging more easily. ">
<polygon fill="white" stroke="black" points="139,-0.5 139,-19.5 224,-19.5 224,-0.5 139,-0.5"/>
<text text-anchor="middle" x="181.5" y="-7.5" font-family="Helvetica,sans-Serif" font-size="10.00">BaLogMacros.h</text>
</a>
</g>
</g>
<!-- Node4&#45;&gt;Node5 -->
<g id="edge5" class="edge"><title>Node4&#45;&gt;Node5</title>
<path fill="none" stroke="midnightblue" d="M181.5,-45.8045C181.5,-36.9102 181.5,-26.7798 181.5,-19.7511"/>
<polygon fill="midnightblue" stroke="midnightblue" points="178,-46.083 181.5,-56.083 185,-46.083 178,-46.083"/>
</g>
<!-- Node10&#45;&gt;Node4 -->
<g id="edge11" class="edge"><title>Node10&#45;&gt;Node4</title>
<path fill="none" stroke="midnightblue" d="M449.791,-111.998C357.868,-93.1045 261.236,-78.4193 212.715,-71.401"/>
<polygon fill="midnightblue" stroke="midnightblue" points="449.315,-115.473 459.818,-114.079 450.738,-108.62 449.315,-115.473"/>
</g>
<!-- Node11 -->
<g id="node11" class="node"><title>Node11</title>
<g id="a_node11"><a xlink:href="BaMsg_8h.html" target="_top" xlink:title="API for messages with state. ">
<polygon fill="white" stroke="black" points="458.5,-56.5 458.5,-75.5 514.5,-75.5 514.5,-56.5 458.5,-56.5"/>
<text text-anchor="middle" x="486.5" y="-63.5" font-family="Helvetica,sans-Serif" font-size="10.00">BaMsg.h</text>
</a>
</g>
</g>
<!-- Node10&#45;&gt;Node11 -->
<g id="edge12" class="edge"><title>Node10&#45;&gt;Node11</title>
<path fill="none" stroke="midnightblue" d="M486.5,-101.805C486.5,-92.9102 486.5,-82.7798 486.5,-75.7511"/>
<polygon fill="midnightblue" stroke="midnightblue" points="483,-102.083 486.5,-112.083 490,-102.083 483,-102.083"/>
</g>
</g>
</svg>
