<?xml version="1.0" encoding="UTF-8" standalone="no"?>
<!DOCTYPE svg PUBLIC "-//W3C//DTD SVG 1.1//EN"
 "http://www.w3.org/Graphics/SVG/1.1/DTD/svg11.dtd">
<!-- Generated by graphviz version 2.38.0 (20140413.2041)
 -->
<!-- Title: BaBool.h Pages: 1 -->
<svg width="418pt" height="196pt"
 viewBox="0.00 0.00 417.50 196.00" xmlns="http://www.w3.org/2000/svg" xmlns:xlink="http://www.w3.org/1999/xlink">
<g id="graph0" class="graph" transform="scale(1 1) rotate(0) translate(4 192)">
<title>BaBool.h</title>
<polygon fill="white" stroke="none" points="-4,4 -4,-192 413.5,-192 413.5,4 -4,4"/>
<!-- Node1 -->
<g id="node1" class="node"><title>Node1</title>
<polygon fill="#bfbfbf" stroke="black" points="160.5,-168.5 160.5,-187.5 216.5,-187.5 216.5,-168.5 160.5,-168.5"/>
<text text-anchor="middle" x="188.5" y="-175.5" font-family="Helvetica,sans-Serif" font-size="10.00">BaBool.h</text>
</g>
<!-- Node2 -->
<g id="node2" class="node"><title>Node2</title>
<g id="a_node2"><a xlink:href="BaCom_8h.html" target="_top" xlink:title="Communications API. ">
<polygon fill="white" stroke="black" points="0,-112.5 0,-131.5 57,-131.5 57,-112.5 0,-112.5"/>
<text text-anchor="middle" x="28.5" y="-119.5" font-family="Helvetica,sans-Serif" font-size="10.00">BaCom.h</text>
</a>
</g>
</g>
<!-- Node1&#45;&gt;Node2 -->
<g id="edge1" class="edge"><title>Node1&#45;&gt;Node2</title>
<path fill="none" stroke="midnightblue" d="M153.454,-165.172C123.326,-155.004 80.6042,-140.585 53.7339,-131.516"/>
<polygon fill="midnightblue" stroke="midnightblue" points="152.553,-168.562 163.148,-168.444 154.792,-161.929 152.553,-168.562"/>
</g>
<!-- Node3 -->
<g id="node3" class="node"><title>Node3</title>
<g id="a_node3"><a xlink:href="BaCore_8h.html" target="_top" xlink:title="OS level API. ">
<polygon fill="white" stroke="black" points="75,-112.5 75,-131.5 132,-131.5 132,-112.5 75,-112.5"/>
<text text-anchor="middle" x="103.5" y="-119.5" font-family="Helvetica,sans-Serif" font-size="10.00">BaCore.h</text>
</a>
</g>
</g>
<!-- Node1&#45;&gt;Node3 -->
<g id="edge2" class="edge"><title>Node1&#45;&gt;Node3</title>
<path fill="none" stroke="midnightblue" d="M166.306,-162.901C150.72,-152.999 130.37,-140.071 117.123,-131.655"/>
<polygon fill="midnightblue" stroke="midnightblue" points="164.526,-165.916 174.843,-168.324 168.279,-160.007 164.526,-165.916"/>
</g>
<!-- Node4 -->
<g id="node4" class="node"><title>Node4</title>
<g id="a_node4"><a xlink:href="BaseApi_8h.html" target="_top" xlink:title="Includes the following: ">
<polygon fill="white" stroke="black" points="129.5,-56.5 129.5,-75.5 191.5,-75.5 191.5,-56.5 129.5,-56.5"/>
<text text-anchor="middle" x="160.5" y="-63.5" font-family="Helvetica,sans-Serif" font-size="10.00">BaseApi.h</text>
</a>
</g>
</g>
<!-- Node1&#45;&gt;Node4 -->
<g id="edge10" class="edge"><title>Node1&#45;&gt;Node4</title>
<path fill="none" stroke="midnightblue" d="M183.835,-158.674C177.714,-134.625 167.217,-93.3881 162.687,-75.5914"/>
<polygon fill="midnightblue" stroke="midnightblue" points="180.444,-159.541 186.303,-168.368 187.228,-157.814 180.444,-159.541"/>
</g>
<!-- Node6 -->
<g id="node6" class="node"><title>Node6</title>
<g id="a_node6"><a xlink:href="BaGpio_8h.html" target="_top" xlink:title="GPIOs APIs. ">
<polygon fill="white" stroke="black" points="189,-112.5 189,-131.5 246,-131.5 246,-112.5 189,-112.5"/>
<text text-anchor="middle" x="217.5" y="-119.5" font-family="Helvetica,sans-Serif" font-size="10.00">BaGpio.h</text>
</a>
</g>
</g>
<!-- Node1&#45;&gt;Node6 -->
<g id="edge5" class="edge"><title>Node1&#45;&gt;Node6</title>
<path fill="none" stroke="midnightblue" d="M198.176,-158.983C203.098,-149.817 208.858,-139.092 212.8,-131.751"/>
<polygon fill="midnightblue" stroke="midnightblue" points="194.937,-157.617 193.289,-168.083 201.104,-160.929 194.937,-157.617"/>
</g>
<!-- Node7 -->
<g id="node7" class="node"><title>Node7</title>
<g id="a_node7"><a xlink:href="BaIniParse_8h.html" target="_top" xlink:title="Ini/config files parser based on iniparser from N. ">
<polygon fill="white" stroke="black" points="264.5,-112.5 264.5,-131.5 336.5,-131.5 336.5,-112.5 264.5,-112.5"/>
<text text-anchor="middle" x="300.5" y="-119.5" font-family="Helvetica,sans-Serif" font-size="10.00">BaIniParse.h</text>
</a>
</g>
</g>
<!-- Node1&#45;&gt;Node7 -->
<g id="edge6" class="edge"><title>Node1&#45;&gt;Node7</title>
<path fill="none" stroke="midnightblue" d="M215.749,-163.862C236.516,-153.849 264.523,-140.346 282.55,-131.655"/>
<polygon fill="midnightblue" stroke="midnightblue" points="213.982,-160.828 206.495,-168.324 217.023,-167.134 213.982,-160.828"/>
</g>
<!-- Node8 -->
<g id="node8" class="node"><title>Node8</title>
<g id="a_node8"><a xlink:href="BaLog_8h.html" target="_top" xlink:title="Logger API. ">
<polygon fill="white" stroke="black" points="355,-112.5 355,-131.5 408,-131.5 408,-112.5 355,-112.5"/>
<text text-anchor="middle" x="381.5" y="-119.5" font-family="Helvetica,sans-Serif" font-size="10.00">BaLog.h</text>
</a>
</g>
</g>
<!-- Node1&#45;&gt;Node8 -->
<g id="edge7" class="edge"><title>Node1&#45;&gt;Node8</title>
<path fill="none" stroke="midnightblue" d="M226.228,-166.444C264.14,-155.837 321.599,-139.76 354.954,-130.427"/>
<polygon fill="midnightblue" stroke="midnightblue" points="225.251,-163.083 216.564,-169.148 227.137,-169.824 225.251,-163.083"/>
</g>
<!-- Node3&#45;&gt;Node4 -->
<g id="edge3" class="edge"><title>Node3&#45;&gt;Node4</title>
<path fill="none" stroke="midnightblue" d="M120.121,-105.253C130.234,-95.6731 142.777,-83.7906 151.175,-75.8339"/>
<polygon fill="midnightblue" stroke="midnightblue" points="117.51,-102.906 112.658,-112.324 122.325,-107.987 117.51,-102.906"/>
</g>
<!-- Node5 -->
<g id="node5" class="node"><title>Node5</title>
<g id="a_node5"><a xlink:href="BaLogMacros_8h.html" target="_top" xlink:title="This header defines macros for logging more easily. ">
<polygon fill="white" stroke="black" points="118,-0.5 118,-19.5 203,-19.5 203,-0.5 118,-0.5"/>
<text text-anchor="middle" x="160.5" y="-7.5" font-family="Helvetica,sans-Serif" font-size="10.00">BaLogMacros.h</text>
</a>
</g>
</g>
<!-- Node4&#45;&gt;Node5 -->
<g id="edge4" class="edge"><title>Node4&#45;&gt;Node5</title>
<path fill="none" stroke="midnightblue" d="M160.5,-45.8045C160.5,-36.9102 160.5,-26.7798 160.5,-19.7511"/>
<polygon fill="midnightblue" stroke="midnightblue" points="157,-46.083 160.5,-56.083 164,-46.083 157,-46.083"/>
</g>
<!-- Node8&#45;&gt;Node4 -->
<g id="edge8" class="edge"><title>Node8&#45;&gt;Node4</title>
<path fill="none" stroke="midnightblue" d="M344.753,-111.828C284.848,-97.0703 226.446,-82.9194 191.611,-74.5036"/>
<polygon fill="midnightblue" stroke="midnightblue" points="344.221,-115.301 354.768,-114.297 345.897,-108.505 344.221,-115.301"/>
</g>
<!-- Node9 -->
<g id="node9" class="node"><title>Node9</title>
<g id="a_node9"><a xlink:href="BaMsg_8h.html" target="_top" xlink:title="API for messages with state. ">
<polygon fill="white" stroke="black" points="353.5,-56.5 353.5,-75.5 409.5,-75.5 409.5,-56.5 353.5,-56.5"/>
<text text-anchor="middle" x="381.5" y="-63.5" font-family="Helvetica,sans-Serif" font-size="10.00">BaMsg.h</text>
</a>
</g>
</g>
<!-- Node8&#45;&gt;Node9 -->
<g id="edge9" class="edge"><title>Node8&#45;&gt;Node9</title>
<path fill="none" stroke="midnightblue" d="M381.5,-101.805C381.5,-92.9102 381.5,-82.7798 381.5,-75.7511"/>
<polygon fill="midnightblue" stroke="midnightblue" points="378,-102.083 381.5,-112.083 385,-102.083 378,-102.083"/>
</g>
</g>
</svg>
