<?xml version="1.0" encoding="UTF-8" standalone="no"?>
<!DOCTYPE svg PUBLIC "-//W3C//DTD SVG 1.1//EN"
 "http://www.w3.org/Graphics/SVG/1.1/DTD/svg11.dtd">
<!-- Generated by graphviz version 2.38.0 (20140413.2041)
 -->
<!-- Title: BaBool.h Pages: 1 -->
<svg width="418pt" height="140pt"
 viewBox="0.00 0.00 417.50 140.00" xmlns="http://www.w3.org/2000/svg" xmlns:xlink="http://www.w3.org/1999/xlink">
<g id="graph0" class="graph" transform="scale(1 1) rotate(0) translate(4 136)">
<title>BaBool.h</title>
<polygon fill="white" stroke="none" points="-4,4 -4,-136 413.5,-136 413.5,4 -4,4"/>
<!-- Node1 -->
<g id="node1" class="node"><title>Node1</title>
<polygon fill="#bfbfbf" stroke="black" points="160.5,-112.5 160.5,-131.5 216.5,-131.5 216.5,-112.5 160.5,-112.5"/>
<text text-anchor="middle" x="188.5" y="-119.5" font-family="Helvetica,sans-Serif" font-size="10.00">BaBool.h</text>
</g>
<!-- Node2 -->
<g id="node2" class="node"><title>Node2</title>
<g id="a_node2"><a xlink:href="BaCom_8h.html" target="_top" xlink:title="Communications API. ">
<polygon fill="white" stroke="black" points="0,-56.5 0,-75.5 57,-75.5 57,-56.5 0,-56.5"/>
<text text-anchor="middle" x="28.5" y="-63.5" font-family="Helvetica,sans-Serif" font-size="10.00">BaCom.h</text>
</a>
</g>
</g>
<!-- Node1&#45;&gt;Node2 -->
<g id="edge1" class="edge"><title>Node1&#45;&gt;Node2</title>
<path fill="none" stroke="midnightblue" d="M153.454,-109.172C123.326,-99.0039 80.6042,-84.5852 53.7339,-75.5164"/>
<polygon fill="midnightblue" stroke="midnightblue" points="152.553,-112.562 163.148,-112.444 154.792,-105.929 152.553,-112.562"/>
</g>
<!-- Node3 -->
<g id="node3" class="node"><title>Node3</title>
<g id="a_node3"><a xlink:href="BaCore_8h.html" target="_top" xlink:title="OS level API. ">
<polygon fill="white" stroke="black" points="75,-56.5 75,-75.5 132,-75.5 132,-56.5 75,-56.5"/>
<text text-anchor="middle" x="103.5" y="-63.5" font-family="Helvetica,sans-Serif" font-size="10.00">BaCore.h</text>
</a>
</g>
</g>
<!-- Node1&#45;&gt;Node3 -->
<g id="edge2" class="edge"><title>Node1&#45;&gt;Node3</title>
<path fill="none" stroke="midnightblue" d="M166.306,-106.901C150.72,-96.9986 130.37,-84.0705 117.123,-75.6545"/>
<polygon fill="midnightblue" stroke="midnightblue" points="164.526,-109.916 174.843,-112.324 168.279,-104.007 164.526,-109.916"/>
</g>
<!-- Node4 -->
<g id="node4" class="node"><title>Node4</title>
<g id="a_node4"><a xlink:href="BaseApi_8h.html" target="_top" xlink:title="Includes the following: ">
<polygon fill="white" stroke="black" points="129.5,-0.5 129.5,-19.5 191.5,-19.5 191.5,-0.5 129.5,-0.5"/>
<text text-anchor="middle" x="160.5" y="-7.5" font-family="Helvetica,sans-Serif" font-size="10.00">BaseApi.h</text>
</a>
</g>
</g>
<!-- Node1&#45;&gt;Node4 -->
<g id="edge9" class="edge"><title>Node1&#45;&gt;Node4</title>
<path fill="none" stroke="midnightblue" d="M183.835,-102.674C177.714,-78.6248 167.217,-37.3881 162.687,-19.5914"/>
<polygon fill="midnightblue" stroke="midnightblue" points="180.444,-103.541 186.303,-112.368 187.228,-101.814 180.444,-103.541"/>
</g>
<!-- Node5 -->
<g id="node5" class="node"><title>Node5</title>
<g id="a_node5"><a xlink:href="BaGpio_8h.html" target="_top" xlink:title="GPIOs APIs. ">
<polygon fill="white" stroke="black" points="189,-56.5 189,-75.5 246,-75.5 246,-56.5 189,-56.5"/>
<text text-anchor="middle" x="217.5" y="-63.5" font-family="Helvetica,sans-Serif" font-size="10.00">BaGpio.h</text>
</a>
</g>
</g>
<!-- Node1&#45;&gt;Node5 -->
<g id="edge4" class="edge"><title>Node1&#45;&gt;Node5</title>
<path fill="none" stroke="midnightblue" d="M198.176,-102.983C203.098,-93.8168 208.858,-83.0922 212.8,-75.7511"/>
<polygon fill="midnightblue" stroke="midnightblue" points="194.937,-101.617 193.289,-112.083 201.104,-104.929 194.937,-101.617"/>
</g>
<!-- Node6 -->
<g id="node6" class="node"><title>Node6</title>
<g id="a_node6"><a xlink:href="BaIniParse_8h.html" target="_top" xlink:title="Ini/config files parser based on iniparser from N. ">
<polygon fill="white" stroke="black" points="264.5,-56.5 264.5,-75.5 336.5,-75.5 336.5,-56.5 264.5,-56.5"/>
<text text-anchor="middle" x="300.5" y="-63.5" font-family="Helvetica,sans-Serif" font-size="10.00">BaIniParse.h</text>
</a>
</g>
</g>
<!-- Node1&#45;&gt;Node6 -->
<g id="edge5" class="edge"><title>Node1&#45;&gt;Node6</title>
<path fill="none" stroke="midnightblue" d="M215.749,-107.862C236.516,-97.8492 264.523,-84.3458 282.55,-75.6545"/>
<polygon fill="midnightblue" stroke="midnightblue" points="213.982,-104.828 206.495,-112.324 217.023,-111.134 213.982,-104.828"/>
</g>
<!-- Node7 -->
<g id="node7" class="node"><title>Node7</title>
<g id="a_node7"><a xlink:href="BaLog_8h.html" target="_top" xlink:title="Logger API. ">
<polygon fill="white" stroke="black" points="355,-56.5 355,-75.5 408,-75.5 408,-56.5 355,-56.5"/>
<text text-anchor="middle" x="381.5" y="-63.5" font-family="Helvetica,sans-Serif" font-size="10.00">BaLog.h</text>
</a>
</g>
</g>
<!-- Node1&#45;&gt;Node7 -->
<g id="edge6" class="edge"><title>Node1&#45;&gt;Node7</title>
<path fill="none" stroke="midnightblue" d="M226.228,-110.444C264.14,-99.8365 321.599,-83.76 354.954,-74.4272"/>
<polygon fill="midnightblue" stroke="midnightblue" points="225.251,-107.083 216.564,-113.148 227.137,-113.824 225.251,-107.083"/>
</g>
<!-- Node3&#45;&gt;Node4 -->
<g id="edge3" class="edge"><title>Node3&#45;&gt;Node4</title>
<path fill="none" stroke="midnightblue" d="M120.121,-49.2533C130.234,-39.6731 142.777,-27.7906 151.175,-19.8339"/>
<polygon fill="midnightblue" stroke="midnightblue" points="117.51,-46.9056 112.658,-56.324 122.325,-51.9873 117.51,-46.9056"/>
</g>
<!-- Node7&#45;&gt;Node4 -->
<g id="edge8" class="edge"><title>Node7&#45;&gt;Node4</title>
<path fill="none" stroke="midnightblue" d="M344.753,-55.8276C284.848,-41.0703 226.446,-26.9194 191.611,-18.5036"/>
<polygon fill="midnightblue" stroke="midnightblue" points="344.221,-59.3012 354.768,-58.297 345.897,-52.5047 344.221,-59.3012"/>
</g>
<!-- Node8 -->
<g id="node8" class="node"><title>Node8</title>
<g id="a_node8"><a xlink:href="BaMsg_8h.html" target="_top" xlink:title="API for messages with state. ">
<polygon fill="white" stroke="black" points="353.5,-0.5 353.5,-19.5 409.5,-19.5 409.5,-0.5 353.5,-0.5"/>
<text text-anchor="middle" x="381.5" y="-7.5" font-family="Helvetica,sans-Serif" font-size="10.00">BaMsg.h</text>
</a>
</g>
</g>
<!-- Node7&#45;&gt;Node8 -->
<g id="edge7" class="edge"><title>Node7&#45;&gt;Node8</title>
<path fill="none" stroke="midnightblue" d="M381.5,-45.8045C381.5,-36.9102 381.5,-26.7798 381.5,-19.7511"/>
<polygon fill="midnightblue" stroke="midnightblue" points="378,-46.083 381.5,-56.083 385,-46.083 378,-46.083"/>
</g>
</g>
</svg>
