<?xml version="1.0" encoding="UTF-8" standalone="no"?>
<!DOCTYPE svg PUBLIC "-//W3C//DTD SVG 1.1//EN"
 "http://www.w3.org/Graphics/SVG/1.1/DTD/svg11.dtd">
<!-- Generated by graphviz version 2.38.0 (20140413.2041)
 -->
<!-- Title: BaCore.h Pages: 1 -->
<svg width="221pt" height="140pt"
 viewBox="0.00 0.00 221.00 140.00" xmlns="http://www.w3.org/2000/svg" xmlns:xlink="http://www.w3.org/1999/xlink">
<g id="graph0" class="graph" transform="scale(1 1) rotate(0) translate(4 136)">
<title>BaCore.h</title>
<polygon fill="white" stroke="none" points="-4,4 -4,-136 217,-136 217,4 -4,4"/>
<!-- Node1 -->
<g id="node1" class="node"><title>Node1</title>
<polygon fill="#bfbfbf" stroke="black" points="78,-112.5 78,-131.5 135,-131.5 135,-112.5 78,-112.5"/>
<text text-anchor="middle" x="106.5" y="-119.5" font-family="Helvetica,sans-Serif" font-size="10.00">BaCore.h</text>
</g>
<!-- Node2 -->
<g id="node2" class="node"><title>Node2</title>
<g id="a_node2"><a xlink:href="BaCom_8h.html" target="_top" xlink:title="Communications API. ">
<polygon fill="white" stroke="black" points="0,-56.5 0,-75.5 57,-75.5 57,-56.5 0,-56.5"/>
<text text-anchor="middle" x="28.5" y="-63.5" font-family="Helvetica,sans-Serif" font-size="10.00">BaCom.h</text>
</a>
</g>
</g>
<!-- Node1&#45;&gt;Node2 -->
<g id="edge1" class="edge"><title>Node1&#45;&gt;Node2</title>
<path fill="none" stroke="midnightblue" d="M85.732,-106.622C71.4829,-96.7574 53.0438,-83.9919 41.0009,-75.6545"/>
<polygon fill="midnightblue" stroke="midnightblue" points="83.7538,-109.51 93.968,-112.324 87.7383,-103.754 83.7538,-109.51"/>
</g>
<!-- Node3 -->
<g id="node3" class="node"><title>Node3</title>
<g id="a_node3"><a xlink:href="BaseApi_8h.html" target="_top" xlink:title="Includes the following: ">
<polygon fill="white" stroke="black" points="75.5,-56.5 75.5,-75.5 137.5,-75.5 137.5,-56.5 75.5,-56.5"/>
<text text-anchor="middle" x="106.5" y="-63.5" font-family="Helvetica,sans-Serif" font-size="10.00">BaseApi.h</text>
</a>
</g>
</g>
<!-- Node1&#45;&gt;Node3 -->
<g id="edge2" class="edge"><title>Node1&#45;&gt;Node3</title>
<path fill="none" stroke="midnightblue" d="M106.5,-101.805C106.5,-92.9102 106.5,-82.7798 106.5,-75.7511"/>
<polygon fill="midnightblue" stroke="midnightblue" points="103,-102.083 106.5,-112.083 110,-102.083 103,-102.083"/>
</g>
<!-- Node5 -->
<g id="node5" class="node"><title>Node5</title>
<g id="a_node5"><a xlink:href="BaProc_8h.html" target="_top" xlink:title="Process functions. ">
<polygon fill="white" stroke="black" points="156,-56.5 156,-75.5 213,-75.5 213,-56.5 156,-56.5"/>
<text text-anchor="middle" x="184.5" y="-63.5" font-family="Helvetica,sans-Serif" font-size="10.00">BaProc.h</text>
</a>
</g>
</g>
<!-- Node1&#45;&gt;Node5 -->
<g id="edge4" class="edge"><title>Node1&#45;&gt;Node5</title>
<path fill="none" stroke="midnightblue" d="M127.268,-106.622C141.517,-96.7574 159.956,-83.9919 171.999,-75.6545"/>
<polygon fill="midnightblue" stroke="midnightblue" points="125.262,-103.754 119.032,-112.324 129.246,-109.51 125.262,-103.754"/>
</g>
<!-- Node4 -->
<g id="node4" class="node"><title>Node4</title>
<g id="a_node4"><a xlink:href="BaLogMacros_8h.html" target="_top" xlink:title="This header defines macros for logging more easily. ">
<polygon fill="white" stroke="black" points="64,-0.5 64,-19.5 149,-19.5 149,-0.5 64,-0.5"/>
<text text-anchor="middle" x="106.5" y="-7.5" font-family="Helvetica,sans-Serif" font-size="10.00">BaLogMacros.h</text>
</a>
</g>
</g>
<!-- Node3&#45;&gt;Node4 -->
<g id="edge3" class="edge"><title>Node3&#45;&gt;Node4</title>
<path fill="none" stroke="midnightblue" d="M106.5,-45.8045C106.5,-36.9102 106.5,-26.7798 106.5,-19.7511"/>
<polygon fill="midnightblue" stroke="midnightblue" points="103,-46.083 106.5,-56.083 110,-46.083 103,-46.083"/>
</g>
</g>
</svg>
