<?xml version="1.0" encoding="UTF-8" standalone="no"?>
<!DOCTYPE svg PUBLIC "-//W3C//DTD SVG 1.1//EN"
 "http://www.w3.org/Graphics/SVG/1.1/DTD/svg11.dtd">
<!-- Generated by graphviz version 2.38.0 (20140413.2041)
 -->
<!-- Title: BaCom.h Pages: 1 -->
<svg width="175pt" height="196pt"
 viewBox="0.00 0.00 175.00 196.00" xmlns="http://www.w3.org/2000/svg" xmlns:xlink="http://www.w3.org/1999/xlink">
<g id="graph0" class="graph" transform="scale(1 1) rotate(0) translate(4 192)">
<title>BaCom.h</title>
<polygon fill="white" stroke="none" points="-4,4 -4,-192 171,-192 171,4 -4,4"/>
<!-- Node1 -->
<g id="node1" class="node"><title>Node1</title>
<polygon fill="#bfbfbf" stroke="black" points="53,-168.5 53,-187.5 110,-187.5 110,-168.5 53,-168.5"/>
<text text-anchor="middle" x="81.5" y="-175.5" font-family="Helvetica,sans-Serif" font-size="10.00">BaCom.h</text>
</g>
<!-- Node2 -->
<g id="node2" class="node"><title>Node2</title>
<g id="a_node2"><a xlink:href="BaRPi_8h.html" target="_top" xlink:title="... ">
<polygon fill="white" stroke="black" points="0,-112.5 0,-131.5 53,-131.5 53,-112.5 0,-112.5"/>
<text text-anchor="middle" x="26.5" y="-119.5" font-family="Helvetica,sans-Serif" font-size="10.00">BaRPi.h</text>
</a>
</g>
</g>
<!-- Node1&#45;&gt;Node2 -->
<g id="edge1" class="edge"><title>Node1&#45;&gt;Node2</title>
<path fill="none" stroke="midnightblue" d="M72.4179,-168.083C64.3287,-160.141 52.3046,-148.335 42.5898,-138.797"/>
<polygon fill="midnightblue" stroke="midnightblue" points="45.0009,-136.26 35.4131,-131.751 40.0967,-141.254 45.0009,-136.26"/>
</g>
<!-- Node3 -->
<g id="node3" class="node"><title>Node3</title>
<g id="a_node3"><a xlink:href="BaBool_8h.html" target="_top" xlink:title="General purpose pure C boolean type. ">
<polygon fill="white" stroke="black" points="47.5,-56.5 47.5,-75.5 103.5,-75.5 103.5,-56.5 47.5,-56.5"/>
<text text-anchor="middle" x="75.5" y="-63.5" font-family="Helvetica,sans-Serif" font-size="10.00">BaBool.h</text>
</a>
</g>
</g>
<!-- Node1&#45;&gt;Node3 -->
<g id="edge4" class="edge"><title>Node1&#45;&gt;Node3</title>
<path fill="none" stroke="midnightblue" d="M81.0292,-168.368C80.0609,-150.617 77.8273,-109.666 76.5144,-85.5974"/>
<polygon fill="midnightblue" stroke="midnightblue" points="80.0082,-85.3859 75.9686,-75.5914 73.0186,-85.7672 80.0082,-85.3859"/>
</g>
<!-- Node5 -->
<g id="node5" class="node"><title>Node5</title>
<g id="a_node5"><a xlink:href="BaCore_8h.html" target="_top" xlink:title="OS level API. ">
<polygon fill="white" stroke="black" points="110,-112.5 110,-131.5 167,-131.5 167,-112.5 110,-112.5"/>
<text text-anchor="middle" x="138.5" y="-119.5" font-family="Helvetica,sans-Serif" font-size="10.00">BaCore.h</text>
</a>
</g>
</g>
<!-- Node1&#45;&gt;Node5 -->
<g id="edge5" class="edge"><title>Node1&#45;&gt;Node5</title>
<path fill="none" stroke="midnightblue" d="M90.658,-168.324C99.0015,-160.42 111.532,-148.548 121.677,-138.938"/>
<polygon fill="midnightblue" stroke="midnightblue" points="124.323,-141.252 129.175,-131.834 119.509,-136.171 124.323,-141.252"/>
</g>
<!-- Node2&#45;&gt;Node3 -->
<g id="edge2" class="edge"><title>Node2&#45;&gt;Node3</title>
<path fill="none" stroke="midnightblue" d="M34.5914,-112.083C41.6554,-104.298 52.0876,-92.8015 60.6489,-83.3665"/>
<polygon fill="midnightblue" stroke="midnightblue" points="63.4312,-85.5087 67.5592,-75.7511 58.2473,-80.8047 63.4312,-85.5087"/>
</g>
<!-- Node4 -->
<g id="node4" class="node"><title>Node4</title>
<polygon fill="white" stroke="#bfbfbf" points="51,-0.5 51,-19.5 100,-19.5 100,-0.5 51,-0.5"/>
<text text-anchor="middle" x="75.5" y="-7.5" font-family="Helvetica,sans-Serif" font-size="10.00">stdint.h</text>
</g>
<!-- Node3&#45;&gt;Node4 -->
<g id="edge3" class="edge"><title>Node3&#45;&gt;Node4</title>
<path fill="none" stroke="midnightblue" d="M75.5,-56.083C75.5,-49.0059 75.5,-38.8611 75.5,-29.9865"/>
<polygon fill="midnightblue" stroke="midnightblue" points="79.0001,-29.751 75.5,-19.7511 72.0001,-29.7511 79.0001,-29.751"/>
</g>
<!-- Node5&#45;&gt;Node3 -->
<g id="edge7" class="edge"><title>Node5&#45;&gt;Node3</title>
<path fill="none" stroke="midnightblue" d="M128.378,-112.324C118.974,-104.263 104.756,-92.0765 93.431,-82.3695"/>
<polygon fill="midnightblue" stroke="midnightblue" points="95.6766,-79.6844 85.8062,-75.8339 91.121,-84.9993 95.6766,-79.6844"/>
</g>
<!-- Node6 -->
<g id="node6" class="node"><title>Node6</title>
<polygon fill="white" stroke="#bfbfbf" points="121.5,-56.5 121.5,-75.5 165.5,-75.5 165.5,-56.5 121.5,-56.5"/>
<text text-anchor="middle" x="143.5" y="-63.5" font-family="Helvetica,sans-Serif" font-size="10.00">time.h</text>
</g>
<!-- Node5&#45;&gt;Node6 -->
<g id="edge6" class="edge"><title>Node5&#45;&gt;Node6</title>
<path fill="none" stroke="midnightblue" d="M139.326,-112.083C139.981,-105.006 140.92,-94.8611 141.742,-85.9865"/>
<polygon fill="midnightblue" stroke="midnightblue" points="145.253,-86.0312 142.69,-75.7511 138.283,-85.3858 145.253,-86.0312"/>
</g>
</g>
</svg>
