<?xml version="1.0" encoding="UTF-8" standalone="no"?>
<!DOCTYPE svg PUBLIC "-//W3C//DTD SVG 1.1//EN"
 "http://www.w3.org/Graphics/SVG/1.1/DTD/svg11.dtd">
<!-- Generated by graphviz version 2.38.0 (20140413.2041)
 -->
<!-- Title: BaCore.h Pages: 1 -->
<svg width="134pt" height="140pt"
 viewBox="0.00 0.00 133.50 140.00" xmlns="http://www.w3.org/2000/svg" xmlns:xlink="http://www.w3.org/1999/xlink">
<g id="graph0" class="graph" transform="scale(1 1) rotate(0) translate(4 136)">
<title>BaCore.h</title>
<polygon fill="white" stroke="none" points="-4,4 -4,-136 129.5,-136 129.5,4 -4,4"/>
<!-- Node1 -->
<g id="node1" class="node"><title>Node1</title>
<polygon fill="#bfbfbf" stroke="black" points="35.5,-112.5 35.5,-131.5 92.5,-131.5 92.5,-112.5 35.5,-112.5"/>
<text text-anchor="middle" x="64" y="-119.5" font-family="Helvetica,sans-Serif" font-size="10.00">BaCore.h</text>
</g>
<!-- Node2 -->
<g id="node2" class="node"><title>Node2</title>
<g id="a_node2"><a xlink:href="BaBool_8h.html" target="_top" xlink:title="General purpose pure C boolean type. ">
<polygon fill="white" stroke="black" points="0,-56.5 0,-75.5 56,-75.5 56,-56.5 0,-56.5"/>
<text text-anchor="middle" x="28" y="-63.5" font-family="Helvetica,sans-Serif" font-size="10.00">BaBool.h</text>
</a>
</g>
</g>
<!-- Node1&#45;&gt;Node2 -->
<g id="edge1" class="edge"><title>Node1&#45;&gt;Node2</title>
<path fill="none" stroke="midnightblue" d="M58.0553,-112.083C53.0227,-104.534 45.6632,-93.4948 39.4865,-84.2298"/>
<polygon fill="midnightblue" stroke="midnightblue" points="42.2933,-82.1301 33.8341,-75.7511 36.4689,-86.0131 42.2933,-82.1301"/>
</g>
<!-- Node4 -->
<g id="node4" class="node"><title>Node4</title>
<polygon fill="white" stroke="#bfbfbf" points="74.5,-56.5 74.5,-75.5 125.5,-75.5 125.5,-56.5 74.5,-56.5"/>
<text text-anchor="middle" x="100" y="-63.5" font-family="Helvetica,sans-Serif" font-size="10.00">unistd.h</text>
</g>
<!-- Node1&#45;&gt;Node4 -->
<g id="edge3" class="edge"><title>Node1&#45;&gt;Node4</title>
<path fill="none" stroke="midnightblue" d="M69.9447,-112.083C74.9773,-104.534 82.3368,-93.4948 88.5135,-84.2298"/>
<polygon fill="midnightblue" stroke="midnightblue" points="91.5311,-86.0131 94.1659,-75.7511 85.7067,-82.1301 91.5311,-86.0131"/>
</g>
<!-- Node3 -->
<g id="node3" class="node"><title>Node3</title>
<polygon fill="white" stroke="#bfbfbf" points="3.5,-0.5 3.5,-19.5 52.5,-19.5 52.5,-0.5 3.5,-0.5"/>
<text text-anchor="middle" x="28" y="-7.5" font-family="Helvetica,sans-Serif" font-size="10.00">stdint.h</text>
</g>
<!-- Node2&#45;&gt;Node3 -->
<g id="edge2" class="edge"><title>Node2&#45;&gt;Node3</title>
<path fill="none" stroke="midnightblue" d="M28,-56.083C28,-49.0059 28,-38.8611 28,-29.9865"/>
<polygon fill="midnightblue" stroke="midnightblue" points="31.5001,-29.751 28,-19.7511 24.5001,-29.7511 31.5001,-29.751"/>
</g>
</g>
</svg>
