<?xml version="1.0" encoding="UTF-8" standalone="no"?>
<!DOCTYPE svg PUBLIC "-//W3C//DTD SVG 1.1//EN"
 "http://www.w3.org/Graphics/SVG/1.1/DTD/svg11.dtd">
<!-- Generated by graphviz version 2.38.0 (20140413.2041)
 -->
<!-- Title: BaCore.h Pages: 1 -->
<svg width="236pt" height="140pt"
 viewBox="0.00 0.00 235.50 140.00" xmlns="http://www.w3.org/2000/svg" xmlns:xlink="http://www.w3.org/1999/xlink">
<g id="graph0" class="graph" transform="scale(1 1) rotate(0) translate(4 136)">
<title>BaCore.h</title>
<polygon fill="white" stroke="none" points="-4,4 -4,-136 231.5,-136 231.5,4 -4,4"/>
<!-- Node4 -->
<g id="node1" class="node"><title>Node4</title>
<polygon fill="#bfbfbf" stroke="black" points="93,-112.5 93,-131.5 150,-131.5 150,-112.5 93,-112.5"/>
<text text-anchor="middle" x="121.5" y="-119.5" font-family="Helvetica,sans-Serif" font-size="10.00">BaCore.h</text>
</g>
<!-- Node5 -->
<g id="node2" class="node"><title>Node5</title>
<g id="a_node2"><a xlink:href="BaseApi_8h.html" target="_top" xlink:title="Includes the following: ">
<polygon fill="white" stroke="black" points="11.5,-56.5 11.5,-75.5 73.5,-75.5 73.5,-56.5 11.5,-56.5"/>
<text text-anchor="middle" x="42.5" y="-63.5" font-family="Helvetica,sans-Serif" font-size="10.00">BaseApi.h</text>
</a>
</g>
</g>
<!-- Node4&#45;&gt;Node5 -->
<g id="edge1" class="edge"><title>Node4&#45;&gt;Node5</title>
<path fill="none" stroke="midnightblue" d="M100.466,-106.622C86.0339,-96.7574 67.3585,-83.9919 55.1612,-75.6545"/>
<polygon fill="midnightblue" stroke="midnightblue" points="98.5765,-109.57 108.807,-112.324 102.527,-103.791 98.5765,-109.57"/>
</g>
<!-- Node7 -->
<g id="node4" class="node"><title>Node7</title>
<g id="a_node4"><a xlink:href="HwCom_8h.html" target="_top" xlink:title="Communications API. ">
<polygon fill="white" stroke="black" points="92,-56.5 92,-75.5 151,-75.5 151,-56.5 92,-56.5"/>
<text text-anchor="middle" x="121.5" y="-63.5" font-family="Helvetica,sans-Serif" font-size="10.00">HwCom.h</text>
</a>
</g>
</g>
<!-- Node4&#45;&gt;Node7 -->
<g id="edge3" class="edge"><title>Node4&#45;&gt;Node7</title>
<path fill="none" stroke="midnightblue" d="M121.5,-101.805C121.5,-92.9102 121.5,-82.7798 121.5,-75.7511"/>
<polygon fill="midnightblue" stroke="midnightblue" points="118,-102.083 121.5,-112.083 125,-102.083 118,-102.083"/>
</g>
<!-- Node8 -->
<g id="node5" class="node"><title>Node8</title>
<g id="a_node5"><a xlink:href="OsProc_8h.html" target="_top" xlink:title="Process functions. ">
<polygon fill="white" stroke="black" points="169.5,-56.5 169.5,-75.5 227.5,-75.5 227.5,-56.5 169.5,-56.5"/>
<text text-anchor="middle" x="198.5" y="-63.5" font-family="Helvetica,sans-Serif" font-size="10.00">OsProc.h</text>
</a>
</g>
</g>
<!-- Node4&#45;&gt;Node8 -->
<g id="edge4" class="edge"><title>Node4&#45;&gt;Node8</title>
<path fill="none" stroke="midnightblue" d="M142.401,-106.342C156.411,-96.5169 174.383,-83.9132 186.159,-75.6545"/>
<polygon fill="midnightblue" stroke="midnightblue" points="140.049,-103.717 133.871,-112.324 144.068,-109.448 140.049,-103.717"/>
</g>
<!-- Node6 -->
<g id="node3" class="node"><title>Node6</title>
<g id="a_node3"><a xlink:href="BaLogMacros_8h.html" target="_top" xlink:title="This header defines macros for logging more easily. ">
<polygon fill="white" stroke="black" points="0,-0.5 0,-19.5 85,-19.5 85,-0.5 0,-0.5"/>
<text text-anchor="middle" x="42.5" y="-7.5" font-family="Helvetica,sans-Serif" font-size="10.00">BaLogMacros.h</text>
</a>
</g>
</g>
<!-- Node5&#45;&gt;Node6 -->
<g id="edge2" class="edge"><title>Node5&#45;&gt;Node6</title>
<path fill="none" stroke="midnightblue" d="M42.5,-45.8045C42.5,-36.9102 42.5,-26.7798 42.5,-19.7511"/>
<polygon fill="midnightblue" stroke="midnightblue" points="39.0001,-46.083 42.5,-56.083 46.0001,-46.083 39.0001,-46.083"/>
</g>
</g>
</svg>
