<?xml version="1.0" encoding="UTF-8" standalone="no"?>
<!DOCTYPE svg PUBLIC "-//W3C//DTD SVG 1.1//EN"
 "http://www.w3.org/Graphics/SVG/1.1/DTD/svg11.dtd">
<!-- Generated by graphviz version 2.38.0 (20140413.2041)
 -->
<!-- Title: BaLogMacros.h Pages: 1 -->
<svg width="152pt" height="252pt"
 viewBox="0.00 0.00 152.00 252.00" xmlns="http://www.w3.org/2000/svg" xmlns:xlink="http://www.w3.org/1999/xlink">
<g id="graph0" class="graph" transform="scale(1 1) rotate(0) translate(4 248)">
<title>BaLogMacros.h</title>
<polygon fill="white" stroke="none" points="-4,4 -4,-248 148,-248 148,4 -4,4"/>
<!-- Node0 -->
<g id="node1" class="node"><title>Node0</title>
<polygon fill="#bfbfbf" stroke="black" points="0,-224.5 0,-243.5 85,-243.5 85,-224.5 0,-224.5"/>
<text text-anchor="middle" x="42.5" y="-231.5" font-family="Helvetica,sans-Serif" font-size="10.00">BaLogMacros.h</text>
</g>
<!-- Node1 -->
<g id="node2" class="node"><title>Node1</title>
<g id="a_node2"><a xlink:href="BaseApi_8h.html" target="_top" xlink:title="Includes the following: ">
<polygon fill="white" stroke="black" points="11.5,-168.5 11.5,-187.5 73.5,-187.5 73.5,-168.5 11.5,-168.5"/>
<text text-anchor="middle" x="42.5" y="-175.5" font-family="Helvetica,sans-Serif" font-size="10.00">BaseApi.h</text>
</a>
</g>
</g>
<!-- Node0&#45;&gt;Node1 -->
<g id="edge1" class="edge"><title>Node0&#45;&gt;Node1</title>
<path fill="none" stroke="midnightblue" d="M42.5,-224.083C42.5,-217.006 42.5,-206.861 42.5,-197.986"/>
<polygon fill="midnightblue" stroke="midnightblue" points="46.0001,-197.751 42.5,-187.751 39.0001,-197.751 46.0001,-197.751"/>
</g>
<!-- Node2 -->
<g id="node3" class="node"><title>Node2</title>
<g id="a_node3"><a xlink:href="BaBool_8h.html" target="_top" xlink:title="General purpose pure C boolean type. ">
<polygon fill="white" stroke="black" points="14.5,-56.5 14.5,-75.5 70.5,-75.5 70.5,-56.5 14.5,-56.5"/>
<text text-anchor="middle" x="42.5" y="-63.5" font-family="Helvetica,sans-Serif" font-size="10.00">BaBool.h</text>
</a>
</g>
</g>
<!-- Node1&#45;&gt;Node2 -->
<g id="edge2" class="edge"><title>Node1&#45;&gt;Node2</title>
<path fill="none" stroke="midnightblue" d="M32.3379,-168.185C23.5916,-159.87 11.6,-146.539 6.5,-132 0.276538,-114.258 12.8087,-95.6492 24.7573,-82.9113"/>
<polygon fill="midnightblue" stroke="midnightblue" points="27.2997,-85.3195 31.9487,-75.7991 22.3774,-80.3424 27.2997,-85.3195"/>
</g>
<!-- Node4 -->
<g id="node5" class="node"><title>Node4</title>
<g id="a_node5"><a xlink:href="BaLog_8h.html" target="_top" xlink:title="Logger API. ">
<polygon fill="white" stroke="black" points="16,-112.5 16,-131.5 69,-131.5 69,-112.5 16,-112.5"/>
<text text-anchor="middle" x="42.5" y="-119.5" font-family="Helvetica,sans-Serif" font-size="10.00">BaLog.h</text>
</a>
</g>
</g>
<!-- Node1&#45;&gt;Node4 -->
<g id="edge4" class="edge"><title>Node1&#45;&gt;Node4</title>
<path fill="none" stroke="midnightblue" d="M42.5,-168.083C42.5,-161.006 42.5,-150.861 42.5,-141.986"/>
<polygon fill="midnightblue" stroke="midnightblue" points="46.0001,-141.751 42.5,-131.751 39.0001,-141.751 46.0001,-141.751"/>
</g>
<!-- Node5 -->
<g id="node6" class="node"><title>Node5</title>
<g id="a_node6"><a xlink:href="BaCore_8h.html" target="_top" xlink:title="OS level API. ">
<polygon fill="white" stroke="black" points="87,-112.5 87,-131.5 144,-131.5 144,-112.5 87,-112.5"/>
<text text-anchor="middle" x="115.5" y="-119.5" font-family="Helvetica,sans-Serif" font-size="10.00">BaCore.h</text>
</a>
</g>
</g>
<!-- Node1&#45;&gt;Node5 -->
<g id="edge6" class="edge"><title>Node1&#45;&gt;Node5</title>
<path fill="none" stroke="midnightblue" d="M54.2287,-168.324C65.3374,-160.107 82.2422,-147.602 95.4833,-137.807"/>
<polygon fill="midnightblue" stroke="midnightblue" points="97.5999,-140.595 103.558,-131.834 93.4369,-134.967 97.5999,-140.595"/>
</g>
<!-- Node3 -->
<g id="node4" class="node"><title>Node3</title>
<polygon fill="white" stroke="#bfbfbf" points="18,-0.5 18,-19.5 67,-19.5 67,-0.5 18,-0.5"/>
<text text-anchor="middle" x="42.5" y="-7.5" font-family="Helvetica,sans-Serif" font-size="10.00">stdint.h</text>
</g>
<!-- Node2&#45;&gt;Node3 -->
<g id="edge3" class="edge"><title>Node2&#45;&gt;Node3</title>
<path fill="none" stroke="midnightblue" d="M42.5,-56.083C42.5,-49.0059 42.5,-38.8611 42.5,-29.9865"/>
<polygon fill="midnightblue" stroke="midnightblue" points="46.0001,-29.751 42.5,-19.7511 39.0001,-29.7511 46.0001,-29.751"/>
</g>
<!-- Node4&#45;&gt;Node2 -->
<g id="edge5" class="edge"><title>Node4&#45;&gt;Node2</title>
<path fill="none" stroke="midnightblue" d="M42.5,-112.083C42.5,-105.006 42.5,-94.8611 42.5,-85.9865"/>
<polygon fill="midnightblue" stroke="midnightblue" points="46.0001,-85.751 42.5,-75.7511 39.0001,-85.7511 46.0001,-85.751"/>
</g>
<!-- Node5&#45;&gt;Node2 -->
<g id="edge8" class="edge"><title>Node5&#45;&gt;Node2</title>
<path fill="none" stroke="midnightblue" d="M103.771,-112.324C92.6626,-104.107 75.7578,-91.6017 62.5167,-81.8069"/>
<polygon fill="midnightblue" stroke="midnightblue" points="64.5631,-78.9671 54.4421,-75.8339 60.4001,-84.5948 64.5631,-78.9671"/>
</g>
<!-- Node6 -->
<g id="node7" class="node"><title>Node6</title>
<polygon fill="white" stroke="#bfbfbf" points="93.5,-56.5 93.5,-75.5 137.5,-75.5 137.5,-56.5 93.5,-56.5"/>
<text text-anchor="middle" x="115.5" y="-63.5" font-family="Helvetica,sans-Serif" font-size="10.00">time.h</text>
</g>
<!-- Node5&#45;&gt;Node6 -->
<g id="edge7" class="edge"><title>Node5&#45;&gt;Node6</title>
<path fill="none" stroke="midnightblue" d="M115.5,-112.083C115.5,-105.006 115.5,-94.8611 115.5,-85.9865"/>
<polygon fill="midnightblue" stroke="midnightblue" points="119,-85.751 115.5,-75.7511 112,-85.7511 119,-85.751"/>
</g>
</g>
</svg>
