<?xml version="1.0" encoding="UTF-8" standalone="no"?>
<!DOCTYPE svg PUBLIC "-//W3C//DTD SVG 1.1//EN"
 "http://www.w3.org/Graphics/SVG/1.1/DTD/svg11.dtd">
<!-- Generated by graphviz version 2.38.0 (20140413.2041)
 -->
<!-- Title: BaLog.h Pages: 1 -->
<svg width="232pt" height="140pt"
 viewBox="0.00 0.00 231.50 140.00" xmlns="http://www.w3.org/2000/svg" xmlns:xlink="http://www.w3.org/1999/xlink">
<g id="graph0" class="graph" transform="scale(1 1) rotate(0) translate(4 136)">
<title>BaLog.h</title>
<polygon fill="white" stroke="none" points="-4,4 -4,-136 227.5,-136 227.5,4 -4,4"/>
<!-- Node3 -->
<g id="node1" class="node"><title>Node3</title>
<polygon fill="#bfbfbf" stroke="black" points="93,-112.5 93,-131.5 146,-131.5 146,-112.5 93,-112.5"/>
<text text-anchor="middle" x="119.5" y="-119.5" font-family="Helvetica,sans-Serif" font-size="10.00">BaLog.h</text>
</g>
<!-- Node4 -->
<g id="node2" class="node"><title>Node4</title>
<g id="a_node2"><a xlink:href="BaseApi_8h.html" target="_top" xlink:title="Includes the following: ">
<polygon fill="white" stroke="black" points="11.5,-56.5 11.5,-75.5 73.5,-75.5 73.5,-56.5 11.5,-56.5"/>
<text text-anchor="middle" x="42.5" y="-63.5" font-family="Helvetica,sans-Serif" font-size="10.00">BaseApi.h</text>
</a>
</g>
</g>
<!-- Node3&#45;&gt;Node4 -->
<g id="edge1" class="edge"><title>Node3&#45;&gt;Node4</title>
<path fill="none" stroke="midnightblue" d="M98.599,-106.342C84.5889,-96.5169 66.617,-83.9132 54.8407,-75.6545"/>
<polygon fill="midnightblue" stroke="midnightblue" points="96.9317,-109.448 107.129,-112.324 100.951,-103.717 96.9317,-109.448"/>
</g>
<!-- Node6 -->
<g id="node4" class="node"><title>Node6</title>
<g id="a_node4"><a xlink:href="BaMsg_8h.html" target="_top" xlink:title="API for messages with state. ">
<polygon fill="white" stroke="black" points="91.5,-56.5 91.5,-75.5 147.5,-75.5 147.5,-56.5 91.5,-56.5"/>
<text text-anchor="middle" x="119.5" y="-63.5" font-family="Helvetica,sans-Serif" font-size="10.00">BaMsg.h</text>
</a>
</g>
</g>
<!-- Node3&#45;&gt;Node6 -->
<g id="edge3" class="edge"><title>Node3&#45;&gt;Node6</title>
<path fill="none" stroke="midnightblue" d="M119.5,-101.805C119.5,-92.9102 119.5,-82.7798 119.5,-75.7511"/>
<polygon fill="midnightblue" stroke="midnightblue" points="116,-102.083 119.5,-112.083 123,-102.083 116,-102.083"/>
</g>
<!-- Node7 -->
<g id="node5" class="node"><title>Node7</title>
<g id="a_node5"><a xlink:href="OsProc_8h.html" target="_top" xlink:title="Process functions. ">
<polygon fill="white" stroke="black" points="165.5,-56.5 165.5,-75.5 223.5,-75.5 223.5,-56.5 165.5,-56.5"/>
<text text-anchor="middle" x="194.5" y="-63.5" font-family="Helvetica,sans-Serif" font-size="10.00">OsProc.h</text>
</a>
</g>
</g>
<!-- Node3&#45;&gt;Node7 -->
<g id="edge4" class="edge"><title>Node3&#45;&gt;Node7</title>
<path fill="none" stroke="midnightblue" d="M139.805,-106.38C153.361,-96.6204 170.742,-84.1057 182.231,-75.8339"/>
<polygon fill="midnightblue" stroke="midnightblue" points="137.62,-103.641 131.55,-112.324 141.71,-109.321 137.62,-103.641"/>
</g>
<!-- Node5 -->
<g id="node3" class="node"><title>Node5</title>
<g id="a_node3"><a xlink:href="BaLogMacros_8h.html" target="_top" xlink:title="This header defines macros for logging more easily. ">
<polygon fill="white" stroke="black" points="0,-0.5 0,-19.5 85,-19.5 85,-0.5 0,-0.5"/>
<text text-anchor="middle" x="42.5" y="-7.5" font-family="Helvetica,sans-Serif" font-size="10.00">BaLogMacros.h</text>
</a>
</g>
</g>
<!-- Node4&#45;&gt;Node5 -->
<g id="edge2" class="edge"><title>Node4&#45;&gt;Node5</title>
<path fill="none" stroke="midnightblue" d="M42.5,-45.8045C42.5,-36.9102 42.5,-26.7798 42.5,-19.7511"/>
<polygon fill="midnightblue" stroke="midnightblue" points="39.0001,-46.083 42.5,-56.083 46.0001,-46.083 39.0001,-46.083"/>
</g>
</g>
</svg>
