<?xml version="1.0" encoding="UTF-8" standalone="no"?>
<!DOCTYPE svg PUBLIC "-//W3C//DTD SVG 1.1//EN"
 "http://www.w3.org/Graphics/SVG/1.1/DTD/svg11.dtd">
<!-- Generated by graphviz version 2.38.0 (20140413.2041)
 -->
<!-- Title: BaProc.h Pages: 1 -->
<svg width="134pt" height="196pt"
 viewBox="0.00 0.00 133.50 196.00" xmlns="http://www.w3.org/2000/svg" xmlns:xlink="http://www.w3.org/1999/xlink">
<g id="graph0" class="graph" transform="scale(1 1) rotate(0) translate(4 192)">
<title>BaProc.h</title>
<polygon fill="white" stroke="none" points="-4,4 -4,-192 129.5,-192 129.5,4 -4,4"/>
<!-- Node1 -->
<g id="node1" class="node"><title>Node1</title>
<polygon fill="#bfbfbf" stroke="black" points="27.5,-168.5 27.5,-187.5 84.5,-187.5 84.5,-168.5 27.5,-168.5"/>
<text text-anchor="middle" x="56" y="-175.5" font-family="Helvetica,sans-Serif" font-size="10.00">BaProc.h</text>
</g>
<!-- Node2 -->
<g id="node2" class="node"><title>Node2</title>
<g id="a_node2"><a xlink:href="BaBool_8h.html" target="_top" xlink:title="General purpose pure C boolean type. ">
<polygon fill="white" stroke="black" points="0,-56.5 0,-75.5 56,-75.5 56,-56.5 0,-56.5"/>
<text text-anchor="middle" x="28" y="-63.5" font-family="Helvetica,sans-Serif" font-size="10.00">BaBool.h</text>
</a>
</g>
</g>
<!-- Node1&#45;&gt;Node2 -->
<g id="edge1" class="edge"><title>Node1&#45;&gt;Node2</title>
<path fill="none" stroke="midnightblue" d="M53.8029,-168.368C49.2843,-150.617 38.8605,-109.666 32.7339,-85.5974"/>
<polygon fill="midnightblue" stroke="midnightblue" points="36.0456,-84.419 30.1869,-75.5914 29.2619,-86.1458 36.0456,-84.419"/>
</g>
<!-- Node4 -->
<g id="node4" class="node"><title>Node4</title>
<g id="a_node4"><a xlink:href="BaCore_8h.html" target="_top" xlink:title="OS level API. ">
<polygon fill="white" stroke="black" points="56.5,-112.5 56.5,-131.5 113.5,-131.5 113.5,-112.5 56.5,-112.5"/>
<text text-anchor="middle" x="85" y="-119.5" font-family="Helvetica,sans-Serif" font-size="10.00">BaCore.h</text>
</a>
</g>
</g>
<!-- Node1&#45;&gt;Node4 -->
<g id="edge3" class="edge"><title>Node1&#45;&gt;Node4</title>
<path fill="none" stroke="midnightblue" d="M60.7888,-168.083C64.7584,-160.691 70.5251,-149.953 75.4348,-140.811"/>
<polygon fill="midnightblue" stroke="midnightblue" points="78.6525,-142.217 80.3003,-131.751 72.4855,-138.905 78.6525,-142.217"/>
</g>
<!-- Node3 -->
<g id="node3" class="node"><title>Node3</title>
<polygon fill="white" stroke="#bfbfbf" points="3.5,-0.5 3.5,-19.5 52.5,-19.5 52.5,-0.5 3.5,-0.5"/>
<text text-anchor="middle" x="28" y="-7.5" font-family="Helvetica,sans-Serif" font-size="10.00">stdint.h</text>
</g>
<!-- Node2&#45;&gt;Node3 -->
<g id="edge2" class="edge"><title>Node2&#45;&gt;Node3</title>
<path fill="none" stroke="midnightblue" d="M28,-56.083C28,-49.0059 28,-38.8611 28,-29.9865"/>
<polygon fill="midnightblue" stroke="midnightblue" points="31.5001,-29.751 28,-19.7511 24.5001,-29.7511 31.5001,-29.751"/>
</g>
<!-- Node4&#45;&gt;Node2 -->
<g id="edge4" class="edge"><title>Node4&#45;&gt;Node2</title>
<path fill="none" stroke="midnightblue" d="M75.842,-112.324C67.4985,-104.42 54.9676,-92.5482 44.8231,-82.9377"/>
<polygon fill="midnightblue" stroke="midnightblue" points="46.9913,-80.1705 37.3247,-75.8339 42.1771,-85.2522 46.9913,-80.1705"/>
</g>
<!-- Node5 -->
<g id="node5" class="node"><title>Node5</title>
<polygon fill="white" stroke="#bfbfbf" points="74.5,-56.5 74.5,-75.5 125.5,-75.5 125.5,-56.5 74.5,-56.5"/>
<text text-anchor="middle" x="100" y="-63.5" font-family="Helvetica,sans-Serif" font-size="10.00">unistd.h</text>
</g>
<!-- Node4&#45;&gt;Node5 -->
<g id="edge5" class="edge"><title>Node4&#45;&gt;Node5</title>
<path fill="none" stroke="midnightblue" d="M87.4769,-112.083C89.4865,-104.849 92.3865,-94.4087 94.8898,-85.3968"/>
<polygon fill="midnightblue" stroke="midnightblue" points="98.2649,-86.323 97.5691,-75.7511 91.5203,-84.4495 98.2649,-86.323"/>
</g>
</g>
</svg>
