<?xml version="1.0" encoding="UTF-8" standalone="no"?>
<!DOCTYPE svg PUBLIC "-//W3C//DTD SVG 1.1//EN"
 "http://www.w3.org/Graphics/SVG/1.1/DTD/svg11.dtd">
<!-- Generated by graphviz version 2.38.0 (20140413.2041)
 -->
<!-- Title: BaseApi.h Pages: 1 -->
<svg width="147pt" height="196pt"
 viewBox="0.00 0.00 147.44 196.00" xmlns="http://www.w3.org/2000/svg" xmlns:xlink="http://www.w3.org/1999/xlink">
<g id="graph0" class="graph" transform="scale(1 1) rotate(0) translate(4 192)">
<title>BaseApi.h</title>
<polygon fill="white" stroke="none" points="-4,4 -4,-192 143.44,-192 143.44,4 -4,4"/>
<!-- Node1 -->
<g id="node1" class="node"><title>Node1</title>
<polygon fill="#bfbfbf" stroke="black" points="6.9395,-168.5 6.9395,-187.5 68.9395,-187.5 68.9395,-168.5 6.9395,-168.5"/>
<text text-anchor="middle" x="37.9395" y="-175.5" font-family="Helvetica,sans-Serif" font-size="10.00">BaseApi.h</text>
</g>
<!-- Node2 -->
<g id="node2" class="node"><title>Node2</title>
<g id="a_node2"><a xlink:href="BaBool_8h.html" target="_top" xlink:title="General purpose pure C boolean type. ">
<polygon fill="white" stroke="black" points="9.9395,-56.5 9.9395,-75.5 65.9395,-75.5 65.9395,-56.5 9.9395,-56.5"/>
<text text-anchor="middle" x="37.9395" y="-63.5" font-family="Helvetica,sans-Serif" font-size="10.00">BaBool.h</text>
</a>
</g>
</g>
<!-- Node1&#45;&gt;Node2 -->
<g id="edge1" class="edge"><title>Node1&#45;&gt;Node2</title>
<path fill="none" stroke="midnightblue" d="M27.7774,-168.185C19.0311,-159.87 7.0395,-146.539 1.9395,-132 -4.28396,-114.258 8.24822,-95.6492 20.1968,-82.9113"/>
<polygon fill="midnightblue" stroke="midnightblue" points="22.7392,-85.3195 27.3882,-75.7991 17.8169,-80.3424 22.7392,-85.3195"/>
</g>
<!-- Node4 -->
<g id="node4" class="node"><title>Node4</title>
<g id="a_node4"><a xlink:href="BaLog_8h.html" target="_top" xlink:title="Logger API. ">
<polygon fill="white" stroke="black" points="11.4395,-112.5 11.4395,-131.5 64.4395,-131.5 64.4395,-112.5 11.4395,-112.5"/>
<text text-anchor="middle" x="37.9395" y="-119.5" font-family="Helvetica,sans-Serif" font-size="10.00">BaLog.h</text>
</a>
</g>
</g>
<!-- Node1&#45;&gt;Node4 -->
<g id="edge3" class="edge"><title>Node1&#45;&gt;Node4</title>
<path fill="none" stroke="midnightblue" d="M37.9395,-168.083C37.9395,-161.006 37.9395,-150.861 37.9395,-141.986"/>
<polygon fill="midnightblue" stroke="midnightblue" points="41.4396,-141.751 37.9395,-131.751 34.4396,-141.751 41.4396,-141.751"/>
</g>
<!-- Node5 -->
<g id="node5" class="node"><title>Node5</title>
<g id="a_node5"><a xlink:href="BaCore_8h.html" target="_top" xlink:title="OS level API. ">
<polygon fill="white" stroke="black" points="82.4395,-112.5 82.4395,-131.5 139.44,-131.5 139.44,-112.5 82.4395,-112.5"/>
<text text-anchor="middle" x="110.94" y="-119.5" font-family="Helvetica,sans-Serif" font-size="10.00">BaCore.h</text>
</a>
</g>
</g>
<!-- Node1&#45;&gt;Node5 -->
<g id="edge5" class="edge"><title>Node1&#45;&gt;Node5</title>
<path fill="none" stroke="midnightblue" d="M49.6682,-168.324C60.7769,-160.107 77.6817,-147.602 90.9228,-137.807"/>
<polygon fill="midnightblue" stroke="midnightblue" points="93.0394,-140.595 98.9974,-131.834 88.8764,-134.967 93.0394,-140.595"/>
</g>
<!-- Node3 -->
<g id="node3" class="node"><title>Node3</title>
<polygon fill="white" stroke="#bfbfbf" points="13.4395,-0.5 13.4395,-19.5 62.4395,-19.5 62.4395,-0.5 13.4395,-0.5"/>
<text text-anchor="middle" x="37.9395" y="-7.5" font-family="Helvetica,sans-Serif" font-size="10.00">stdint.h</text>
</g>
<!-- Node2&#45;&gt;Node3 -->
<g id="edge2" class="edge"><title>Node2&#45;&gt;Node3</title>
<path fill="none" stroke="midnightblue" d="M37.9395,-56.083C37.9395,-49.0059 37.9395,-38.8611 37.9395,-29.9865"/>
<polygon fill="midnightblue" stroke="midnightblue" points="41.4396,-29.751 37.9395,-19.7511 34.4396,-29.7511 41.4396,-29.751"/>
</g>
<!-- Node4&#45;&gt;Node2 -->
<g id="edge4" class="edge"><title>Node4&#45;&gt;Node2</title>
<path fill="none" stroke="midnightblue" d="M37.9395,-112.083C37.9395,-105.006 37.9395,-94.8611 37.9395,-85.9865"/>
<polygon fill="midnightblue" stroke="midnightblue" points="41.4396,-85.751 37.9395,-75.7511 34.4396,-85.7511 41.4396,-85.751"/>
</g>
<!-- Node5&#45;&gt;Node2 -->
<g id="edge7" class="edge"><title>Node5&#45;&gt;Node2</title>
<path fill="none" stroke="midnightblue" d="M99.2108,-112.324C88.1021,-104.107 71.1973,-91.6017 57.9562,-81.8069"/>
<polygon fill="midnightblue" stroke="midnightblue" points="60.0026,-78.9671 49.8816,-75.8339 55.8396,-84.5948 60.0026,-78.9671"/>
</g>
<!-- Node6 -->
<g id="node6" class="node"><title>Node6</title>
<polygon fill="white" stroke="#bfbfbf" points="88.9395,-56.5 88.9395,-75.5 132.94,-75.5 132.94,-56.5 88.9395,-56.5"/>
<text text-anchor="middle" x="110.94" y="-63.5" font-family="Helvetica,sans-Serif" font-size="10.00">time.h</text>
</g>
<!-- Node5&#45;&gt;Node6 -->
<g id="edge6" class="edge"><title>Node5&#45;&gt;Node6</title>
<path fill="none" stroke="midnightblue" d="M110.94,-112.083C110.94,-105.006 110.94,-94.8611 110.94,-85.9865"/>
<polygon fill="midnightblue" stroke="midnightblue" points="114.44,-85.751 110.94,-75.7511 107.44,-85.7511 114.44,-85.751"/>
</g>
</g>
</svg>
