<?xml version="1.0" encoding="UTF-8" standalone="no"?>
<!DOCTYPE svg PUBLIC "-//W3C//DTD SVG 1.1//EN"
 "http://www.w3.org/Graphics/SVG/1.1/DTD/svg11.dtd">
<!-- Generated by graphviz version 2.38.0 (20140413.2041)
 -->
<!-- Title: BaUtils.hpp Pages: 1 -->
<svg width="811pt" height="140pt"
 viewBox="0.00 0.00 811.00 140.00" xmlns="http://www.w3.org/2000/svg" xmlns:xlink="http://www.w3.org/1999/xlink">
<g id="graph0" class="graph" transform="scale(1 1) rotate(0) translate(4 136)">
<title>BaUtils.hpp</title>
<polygon fill="white" stroke="none" points="-4,4 -4,-136 807,-136 807,4 -4,4"/>
<!-- Node1 -->
<g id="node1" class="node"><title>Node1</title>
<polygon fill="#bfbfbf" stroke="black" points="367.5,-112.5 367.5,-131.5 434.5,-131.5 434.5,-112.5 367.5,-112.5"/>
<text text-anchor="middle" x="401" y="-119.5" font-family="Helvetica,sans-Serif" font-size="10.00">BaUtils.hpp</text>
</g>
<!-- Node2 -->
<g id="node2" class="node"><title>Node2</title>
<polygon fill="white" stroke="#bfbfbf" points="0,-56.5 0,-75.5 60,-75.5 60,-56.5 0,-56.5"/>
<text text-anchor="middle" x="30" y="-63.5" font-family="Helvetica,sans-Serif" font-size="10.00">sys/stat.h</text>
</g>
<!-- Node1&#45;&gt;Node2 -->
<g id="edge1" class="edge"><title>Node1&#45;&gt;Node2</title>
<path fill="none" stroke="midnightblue" d="M367.38,-117.479C308.953,-111.137 184.726,-96.6663 70.1669,-76.0693"/>
<polygon fill="midnightblue" stroke="midnightblue" points="70.6415,-72.5983 60.1767,-74.2528 69.3892,-79.4854 70.6415,-72.5983"/>
</g>
<!-- Node3 -->
<g id="node3" class="node"><title>Node3</title>
<polygon fill="white" stroke="#bfbfbf" points="78,-56.5 78,-75.5 124,-75.5 124,-56.5 78,-56.5"/>
<text text-anchor="middle" x="101" y="-63.5" font-family="Helvetica,sans-Serif" font-size="10.00">stdio.h</text>
</g>
<!-- Node1&#45;&gt;Node3 -->
<g id="edge2" class="edge"><title>Node1&#45;&gt;Node3</title>
<path fill="none" stroke="midnightblue" d="M367.35,-116.538C318.191,-109.763 223.709,-95.7684 134.368,-76.1136"/>
<polygon fill="midnightblue" stroke="midnightblue" points="134.867,-72.639 124.345,-73.8794 133.344,-79.4713 134.867,-72.639"/>
</g>
<!-- Node4 -->
<g id="node4" class="node"><title>Node4</title>
<polygon fill="white" stroke="#bfbfbf" points="142,-56.5 142,-75.5 190,-75.5 190,-56.5 142,-56.5"/>
<text text-anchor="middle" x="166" y="-63.5" font-family="Helvetica,sans-Serif" font-size="10.00">stdlib.h</text>
</g>
<!-- Node1&#45;&gt;Node4 -->
<g id="edge3" class="edge"><title>Node1&#45;&gt;Node4</title>
<path fill="none" stroke="midnightblue" d="M367.477,-113.908C327.501,-105.356 258.709,-90.3365 200,-76 199.9,-75.9756 199.8,-75.951 199.699,-75.9265"/>
<polygon fill="midnightblue" stroke="midnightblue" points="200.669,-72.5616 190.117,-73.5065 198.955,-79.3486 200.669,-72.5616"/>
</g>
<!-- Node5 -->
<g id="node5" class="node"><title>Node5</title>
<polygon fill="white" stroke="#bfbfbf" points="208.5,-56.5 208.5,-75.5 257.5,-75.5 257.5,-56.5 208.5,-56.5"/>
<text text-anchor="middle" x="233" y="-63.5" font-family="Helvetica,sans-Serif" font-size="10.00">dirent.h</text>
</g>
<!-- Node1&#45;&gt;Node5 -->
<g id="edge4" class="edge"><title>Node1&#45;&gt;Node5</title>
<path fill="none" stroke="midnightblue" d="M374.38,-112.444C345.41,-103.132 298.998,-88.2137 267.312,-78.0289"/>
<polygon fill="midnightblue" stroke="midnightblue" points="268.174,-74.6296 257.583,-74.9015 266.032,-81.2938 268.174,-74.6296"/>
</g>
<!-- Node6 -->
<g id="node6" class="node"><title>Node6</title>
<polygon fill="white" stroke="#bfbfbf" points="275.5,-56.5 275.5,-75.5 324.5,-75.5 324.5,-56.5 275.5,-56.5"/>
<text text-anchor="middle" x="300" y="-63.5" font-family="Helvetica,sans-Serif" font-size="10.00">string.h</text>
</g>
<!-- Node1&#45;&gt;Node6 -->
<g id="edge5" class="edge"><title>Node1&#45;&gt;Node6</title>
<path fill="none" stroke="midnightblue" d="M384.773,-112.324C368.649,-103.703 343.7,-90.3643 325.036,-80.3855"/>
<polygon fill="midnightblue" stroke="midnightblue" points="326.656,-77.283 316.187,-75.6545 323.356,-83.456 326.656,-77.283"/>
</g>
<!-- Node7 -->
<g id="node7" class="node"><title>Node7</title>
<polygon fill="white" stroke="#bfbfbf" points="343,-56.5 343,-75.5 395,-75.5 395,-56.5 343,-56.5"/>
<text text-anchor="middle" x="369" y="-63.5" font-family="Helvetica,sans-Serif" font-size="10.00">stdarg.h</text>
</g>
<!-- Node1&#45;&gt;Node7 -->
<g id="edge6" class="edge"><title>Node1&#45;&gt;Node7</title>
<path fill="none" stroke="midnightblue" d="M395.716,-112.083C391.289,-104.613 384.837,-93.7244 379.382,-84.5199"/>
<polygon fill="midnightblue" stroke="midnightblue" points="382.295,-82.5697 374.186,-75.7511 376.273,-86.1383 382.295,-82.5697"/>
</g>
<!-- Node8 -->
<g id="node8" class="node"><title>Node8</title>
<polygon fill="white" stroke="#bfbfbf" points="413.5,-56.5 413.5,-75.5 454.5,-75.5 454.5,-56.5 413.5,-56.5"/>
<text text-anchor="middle" x="434" y="-63.5" font-family="Helvetica,sans-Serif" font-size="10.00">string</text>
</g>
<!-- Node1&#45;&gt;Node8 -->
<g id="edge7" class="edge"><title>Node1&#45;&gt;Node8</title>
<path fill="none" stroke="midnightblue" d="M406.449,-112.083C411.014,-104.613 417.668,-93.7244 423.293,-84.5199"/>
<polygon fill="midnightblue" stroke="midnightblue" points="426.424,-86.109 428.652,-75.7511 420.451,-82.4588 426.424,-86.109"/>
</g>
<!-- Node9 -->
<g id="node9" class="node"><title>Node9</title>
<polygon fill="white" stroke="#bfbfbf" points="472.5,-56.5 472.5,-75.5 521.5,-75.5 521.5,-56.5 472.5,-56.5"/>
<text text-anchor="middle" x="497" y="-63.5" font-family="Helvetica,sans-Serif" font-size="10.00">istream</text>
</g>
<!-- Node1&#45;&gt;Node9 -->
<g id="edge8" class="edge"><title>Node1&#45;&gt;Node9</title>
<path fill="none" stroke="midnightblue" d="M416.424,-112.324C431.54,-103.822 454.815,-90.7288 472.471,-80.7975"/>
<polygon fill="midnightblue" stroke="midnightblue" points="474.614,-83.6077 481.614,-75.6545 471.183,-77.5066 474.614,-83.6077"/>
</g>
<!-- Node10 -->
<g id="node10" class="node"><title>Node10</title>
<polygon fill="white" stroke="#bfbfbf" points="539.5,-56.5 539.5,-75.5 588.5,-75.5 588.5,-56.5 539.5,-56.5"/>
<text text-anchor="middle" x="564" y="-63.5" font-family="Helvetica,sans-Serif" font-size="10.00">fstream</text>
</g>
<!-- Node1&#45;&gt;Node10 -->
<g id="edge9" class="edge"><title>Node1&#45;&gt;Node10</title>
<path fill="none" stroke="midnightblue" d="M426.828,-112.444C454.572,-103.252 498.804,-88.5987 529.509,-78.4265"/>
<polygon fill="midnightblue" stroke="midnightblue" points="530.968,-81.6302 539.36,-75.1629 528.767,-74.9854 530.968,-81.6302"/>
</g>
<!-- Node11 -->
<g id="node11" class="node"><title>Node11</title>
<polygon fill="white" stroke="#bfbfbf" points="607,-56.5 607,-75.5 663,-75.5 663,-56.5 607,-56.5"/>
<text text-anchor="middle" x="635" y="-63.5" font-family="Helvetica,sans-Serif" font-size="10.00">algorithm</text>
</g>
<!-- Node1&#45;&gt;Node11 -->
<g id="edge10" class="edge"><title>Node1&#45;&gt;Node11</title>
<path fill="none" stroke="midnightblue" d="M434.847,-113.42C472.125,-105.039 534.104,-91.0053 596.683,-76.2874"/>
<polygon fill="midnightblue" stroke="midnightblue" points="597.798,-79.6207 606.728,-73.9202 596.192,-72.8074 597.798,-79.6207"/>
</g>
<!-- Node12 -->
<g id="node12" class="node"><title>Node12</title>
<polygon fill="white" stroke="#bfbfbf" points="681.5,-56.5 681.5,-75.5 728.5,-75.5 728.5,-56.5 681.5,-56.5"/>
<text text-anchor="middle" x="705" y="-63.5" font-family="Helvetica,sans-Serif" font-size="10.00">iterator</text>
</g>
<!-- Node1&#45;&gt;Node12 -->
<g id="edge11" class="edge"><title>Node1&#45;&gt;Node12</title>
<path fill="none" stroke="midnightblue" d="M434.585,-116.544C484.198,-109.719 580.151,-95.592 671.333,-75.9486"/>
<polygon fill="midnightblue" stroke="midnightblue" points="672.254,-79.3301 681.278,-73.7795 670.762,-72.4908 672.254,-79.3301"/>
</g>
<!-- Node13 -->
<g id="node13" class="node"><title>Node13</title>
<g id="a_node13"><a xlink:href="BaBool_8h.html" target="_top" xlink:title="General purpose pure C boolean type. ">
<polygon fill="white" stroke="black" points="747,-56.5 747,-75.5 803,-75.5 803,-56.5 747,-56.5"/>
<text text-anchor="middle" x="775" y="-63.5" font-family="Helvetica,sans-Serif" font-size="10.00">BaBool.h</text>
</a>
</g>
</g>
<!-- Node1&#45;&gt;Node13 -->
<g id="edge12" class="edge"><title>Node1&#45;&gt;Node13</title>
<path fill="none" stroke="midnightblue" d="M434.67,-117.698C493.809,-111.64 620.345,-97.5334 736.644,-76.0832"/>
<polygon fill="midnightblue" stroke="midnightblue" points="737.598,-79.4657 746.785,-74.189 736.312,-72.5847 737.598,-79.4657"/>
</g>
<!-- Node14 -->
<g id="node14" class="node"><title>Node14</title>
<polygon fill="white" stroke="#bfbfbf" points="750.5,-0.5 750.5,-19.5 799.5,-19.5 799.5,-0.5 750.5,-0.5"/>
<text text-anchor="middle" x="775" y="-7.5" font-family="Helvetica,sans-Serif" font-size="10.00">stdint.h</text>
</g>
<!-- Node13&#45;&gt;Node14 -->
<g id="edge13" class="edge"><title>Node13&#45;&gt;Node14</title>
<path fill="none" stroke="midnightblue" d="M775,-56.083C775,-49.0059 775,-38.8611 775,-29.9865"/>
<polygon fill="midnightblue" stroke="midnightblue" points="778.5,-29.751 775,-19.7511 771.5,-29.7511 778.5,-29.751"/>
</g>
</g>
</svg>
