<?xml version="1.0" encoding="UTF-8" standalone="no"?>
<!DOCTYPE svg PUBLIC "-//W3C//DTD SVG 1.1//EN"
 "http://www.w3.org/Graphics/SVG/1.1/DTD/svg11.dtd">
<!-- Generated by graphviz version 2.38.0 (20140413.2041)
 -->
<!-- Title: BaUtils.hpp Pages: 1 -->
<svg width="530pt" height="84pt"
 viewBox="0.00 0.00 529.50 84.00" xmlns="http://www.w3.org/2000/svg" xmlns:xlink="http://www.w3.org/1999/xlink">
<g id="graph0" class="graph" transform="scale(1 1) rotate(0) translate(4 80)">
<title>BaUtils.hpp</title>
<polygon fill="white" stroke="none" points="-4,4 -4,-80 525.5,-80 525.5,4 -4,4"/>
<!-- Node1 -->
<g id="node1" class="node"><title>Node1</title>
<polygon fill="#bfbfbf" stroke="black" points="232.5,-56.5 232.5,-75.5 299.5,-75.5 299.5,-56.5 232.5,-56.5"/>
<text text-anchor="middle" x="266" y="-63.5" font-family="Helvetica,sans-Serif" font-size="10.00">BaUtils.hpp</text>
</g>
<!-- Node2 -->
<g id="node2" class="node"><title>Node2</title>
<polygon fill="white" stroke="#bfbfbf" points="0,-0.5 0,-19.5 60,-19.5 60,-0.5 0,-0.5"/>
<text text-anchor="middle" x="30" y="-7.5" font-family="Helvetica,sans-Serif" font-size="10.00">sys/stat.h</text>
</g>
<!-- Node1&#45;&gt;Node2 -->
<g id="edge1" class="edge"><title>Node1&#45;&gt;Node2</title>
<path fill="none" stroke="midnightblue" d="M232.181,-57.299C194.928,-48.8106 132.972,-34.678 70.2941,-20.2936"/>
<polygon fill="midnightblue" stroke="midnightblue" points="70.7617,-16.8099 60.2321,-17.9836 69.1954,-23.6325 70.7617,-16.8099"/>
</g>
<!-- Node3 -->
<g id="node3" class="node"><title>Node3</title>
<polygon fill="white" stroke="#bfbfbf" points="78,-0.5 78,-19.5 124,-19.5 124,-0.5 78,-0.5"/>
<text text-anchor="middle" x="101" y="-7.5" font-family="Helvetica,sans-Serif" font-size="10.00">stdio.h</text>
</g>
<!-- Node1&#45;&gt;Node3 -->
<g id="edge2" class="edge"><title>Node1&#45;&gt;Node3</title>
<path fill="none" stroke="midnightblue" d="M239.855,-56.4435C211.075,-47.0244 164.766,-31.869 133.629,-21.6785"/>
<polygon fill="midnightblue" stroke="midnightblue" points="134.686,-18.3421 124.094,-18.558 132.509,-24.9948 134.686,-18.3421"/>
</g>
<!-- Node4 -->
<g id="node4" class="node"><title>Node4</title>
<polygon fill="white" stroke="#bfbfbf" points="142,-0.5 142,-19.5 190,-19.5 190,-0.5 142,-0.5"/>
<text text-anchor="middle" x="166" y="-7.5" font-family="Helvetica,sans-Serif" font-size="10.00">stdlib.h</text>
</g>
<!-- Node1&#45;&gt;Node4 -->
<g id="edge3" class="edge"><title>Node1&#45;&gt;Node4</title>
<path fill="none" stroke="midnightblue" d="M249.933,-56.324C234.042,-47.7428 209.493,-34.486 191.042,-24.5224"/>
<polygon fill="midnightblue" stroke="midnightblue" points="192.489,-21.3264 182.027,-19.6545 189.163,-27.4857 192.489,-21.3264"/>
</g>
<!-- Node5 -->
<g id="node5" class="node"><title>Node5</title>
<polygon fill="white" stroke="#bfbfbf" points="208.5,-0.5 208.5,-19.5 257.5,-19.5 257.5,-0.5 208.5,-0.5"/>
<text text-anchor="middle" x="233" y="-7.5" font-family="Helvetica,sans-Serif" font-size="10.00">dirent.h</text>
</g>
<!-- Node1&#45;&gt;Node5 -->
<g id="edge4" class="edge"><title>Node1&#45;&gt;Node5</title>
<path fill="none" stroke="midnightblue" d="M260.551,-56.083C255.986,-48.6127 249.332,-37.7244 243.707,-28.5199"/>
<polygon fill="midnightblue" stroke="midnightblue" points="246.549,-26.4588 238.348,-19.7511 240.576,-30.109 246.549,-26.4588"/>
</g>
<!-- Node6 -->
<g id="node6" class="node"><title>Node6</title>
<polygon fill="white" stroke="#bfbfbf" points="275.5,-0.5 275.5,-19.5 324.5,-19.5 324.5,-0.5 275.5,-0.5"/>
<text text-anchor="middle" x="300" y="-7.5" font-family="Helvetica,sans-Serif" font-size="10.00">string.h</text>
</g>
<!-- Node1&#45;&gt;Node6 -->
<g id="edge5" class="edge"><title>Node1&#45;&gt;Node6</title>
<path fill="none" stroke="midnightblue" d="M271.614,-56.083C276.367,-48.5341 283.318,-37.4948 289.152,-28.2298"/>
<polygon fill="midnightblue" stroke="midnightblue" points="292.124,-30.0783 294.49,-19.7511 286.2,-26.3486 292.124,-30.0783"/>
</g>
<!-- Node7 -->
<g id="node7" class="node"><title>Node7</title>
<polygon fill="white" stroke="#bfbfbf" points="343,-0.5 343,-19.5 395,-19.5 395,-0.5 343,-0.5"/>
<text text-anchor="middle" x="369" y="-7.5" font-family="Helvetica,sans-Serif" font-size="10.00">stdarg.h</text>
</g>
<!-- Node1&#45;&gt;Node7 -->
<g id="edge6" class="edge"><title>Node1&#45;&gt;Node7</title>
<path fill="none" stroke="midnightblue" d="M282.549,-56.324C298.992,-47.7034 324.435,-34.3643 343.468,-24.3855"/>
<polygon fill="midnightblue" stroke="midnightblue" points="345.261,-27.3977 352.492,-19.6545 342.011,-21.198 345.261,-27.3977"/>
</g>
<!-- Node8 -->
<g id="node8" class="node"><title>Node8</title>
<polygon fill="white" stroke="#bfbfbf" points="413.5,-0.5 413.5,-19.5 454.5,-19.5 454.5,-0.5 413.5,-0.5"/>
<text text-anchor="middle" x="434" y="-7.5" font-family="Helvetica,sans-Serif" font-size="10.00">string</text>
</g>
<!-- Node1&#45;&gt;Node8 -->
<g id="edge7" class="edge"><title>Node1&#45;&gt;Node8</title>
<path fill="none" stroke="midnightblue" d="M292.62,-56.4435C322.842,-46.7292 372.047,-30.9134 403.712,-20.7354"/>
<polygon fill="midnightblue" stroke="midnightblue" points="404.881,-24.0361 413.33,-17.6439 402.739,-17.3719 404.881,-24.0361"/>
</g>
<!-- Node9 -->
<g id="node9" class="node"><title>Node9</title>
<polygon fill="white" stroke="#bfbfbf" points="472.5,-0.5 472.5,-19.5 521.5,-19.5 521.5,-0.5 472.5,-0.5"/>
<text text-anchor="middle" x="497" y="-7.5" font-family="Helvetica,sans-Serif" font-size="10.00">istream</text>
</g>
<!-- Node1&#45;&gt;Node9 -->
<g id="edge8" class="edge"><title>Node1&#45;&gt;Node9</title>
<path fill="none" stroke="midnightblue" d="M299.737,-57.793C337.222,-49.6842 399.779,-35.8533 462.158,-20.3908"/>
<polygon fill="midnightblue" stroke="midnightblue" points="463.308,-23.7113 472.164,-17.8958 461.614,-16.9193 463.308,-23.7113"/>
</g>
</g>
</svg>
