<?xml version="1.0" encoding="UTF-8" standalone="no"?>
<!DOCTYPE svg PUBLIC "-//W3C//DTD SVG 1.1//EN"
 "http://www.w3.org/Graphics/SVG/1.1/DTD/svg11.dtd">
<!-- Generated by graphviz version 2.38.0 (20140413.2041)
 -->
<!-- Title: BaUtils.hpp Pages: 1 -->
<svg width="259pt" height="84pt"
 viewBox="0.00 0.00 258.50 84.00" xmlns="http://www.w3.org/2000/svg" xmlns:xlink="http://www.w3.org/1999/xlink">
<g id="graph0" class="graph" transform="scale(1 1) rotate(0) translate(4 80)">
<title>BaUtils.hpp</title>
<polygon fill="white" stroke="none" points="-4,4 -4,-80 254.5,-80 254.5,4 -4,4"/>
<!-- Node1 -->
<g id="node1" class="node"><title>Node1</title>
<polygon fill="#bfbfbf" stroke="black" points="86,-56.5 86,-75.5 153,-75.5 153,-56.5 86,-56.5"/>
<text text-anchor="middle" x="119.5" y="-63.5" font-family="Helvetica,sans-Serif" font-size="10.00">BaUtils.hpp</text>
</g>
<!-- Node2 -->
<g id="node2" class="node"><title>Node2</title>
<polygon fill="white" stroke="#bfbfbf" points="0,-0.5 0,-19.5 41,-19.5 41,-0.5 0,-0.5"/>
<text text-anchor="middle" x="20.5" y="-7.5" font-family="Helvetica,sans-Serif" font-size="10.00">string</text>
</g>
<!-- Node1&#45;&gt;Node2 -->
<g id="edge1" class="edge"><title>Node1&#45;&gt;Node2</title>
<path fill="none" stroke="midnightblue" d="M103.594,-56.324C87.8618,-47.7428 63.5577,-34.486 45.2911,-24.5224"/>
<polygon fill="midnightblue" stroke="midnightblue" points="46.8216,-21.3704 36.3666,-19.6545 43.4696,-27.5157 46.8216,-21.3704"/>
</g>
<!-- Node3 -->
<g id="node3" class="node"><title>Node3</title>
<polygon fill="white" stroke="#bfbfbf" points="59,-0.5 59,-19.5 108,-19.5 108,-0.5 59,-0.5"/>
<text text-anchor="middle" x="83.5" y="-7.5" font-family="Helvetica,sans-Serif" font-size="10.00">istream</text>
</g>
<!-- Node1&#45;&gt;Node3 -->
<g id="edge2" class="edge"><title>Node1&#45;&gt;Node3</title>
<path fill="none" stroke="midnightblue" d="M113.555,-56.083C108.523,-48.5341 101.163,-37.4948 94.9865,-28.2298"/>
<polygon fill="midnightblue" stroke="midnightblue" points="97.7933,-26.1301 89.3341,-19.7511 91.9689,-30.0131 97.7933,-26.1301"/>
</g>
<!-- Node4 -->
<g id="node4" class="node"><title>Node4</title>
<polygon fill="white" stroke="#bfbfbf" points="126.5,-0.5 126.5,-19.5 186.5,-19.5 186.5,-0.5 126.5,-0.5"/>
<text text-anchor="middle" x="156.5" y="-7.5" font-family="Helvetica,sans-Serif" font-size="10.00">sys/stat.h</text>
</g>
<!-- Node1&#45;&gt;Node4 -->
<g id="edge3" class="edge"><title>Node1&#45;&gt;Node4</title>
<path fill="none" stroke="midnightblue" d="M125.61,-56.083C130.782,-48.5341 138.346,-37.4948 144.694,-28.2298"/>
<polygon fill="midnightblue" stroke="midnightblue" points="147.739,-29.9787 150.504,-19.7511 141.964,-26.0221 147.739,-29.9787"/>
</g>
<!-- Node5 -->
<g id="node5" class="node"><title>Node5</title>
<polygon fill="white" stroke="#bfbfbf" points="204.5,-0.5 204.5,-19.5 250.5,-19.5 250.5,-0.5 204.5,-0.5"/>
<text text-anchor="middle" x="227.5" y="-7.5" font-family="Helvetica,sans-Serif" font-size="10.00">stdio.h</text>
</g>
<!-- Node1&#45;&gt;Node5 -->
<g id="edge4" class="edge"><title>Node1&#45;&gt;Node5</title>
<path fill="none" stroke="midnightblue" d="M136.852,-56.324C154.172,-47.6641 181.015,-34.2424 201.002,-24.249"/>
<polygon fill="midnightblue" stroke="midnightblue" points="202.812,-27.2572 210.191,-19.6545 199.681,-20.9962 202.812,-27.2572"/>
</g>
</g>
</svg>
