<?xml version="1.0" encoding="UTF-8" standalone="no"?>
<!DOCTYPE svg PUBLIC "-//W3C//DTD SVG 1.1//EN"
 "http://www.w3.org/Graphics/SVG/1.1/DTD/svg11.dtd">
<!-- Generated by graphviz version 2.38.0 (20140413.2041)
 -->
<!-- Title: BaUtils.hpp Pages: 1 -->
<svg width="116pt" height="84pt"
 viewBox="0.00 0.00 116.00 84.00" xmlns="http://www.w3.org/2000/svg" xmlns:xlink="http://www.w3.org/1999/xlink">
<g id="graph0" class="graph" transform="scale(1 1) rotate(0) translate(4 80)">
<title>BaUtils.hpp</title>
<polygon fill="white" stroke="none" points="-4,4 -4,-80 112,-80 112,4 -4,4"/>
<!-- Node1 -->
<g id="node1" class="node"><title>Node1</title>
<polygon fill="#bfbfbf" stroke="black" points="18,-56.5 18,-75.5 85,-75.5 85,-56.5 18,-56.5"/>
<text text-anchor="middle" x="51.5" y="-63.5" font-family="Helvetica,sans-Serif" font-size="10.00">BaUtils.hpp</text>
</g>
<!-- Node2 -->
<g id="node2" class="node"><title>Node2</title>
<polygon fill="white" stroke="#bfbfbf" points="0,-0.5 0,-19.5 41,-19.5 41,-0.5 0,-0.5"/>
<text text-anchor="middle" x="20.5" y="-7.5" font-family="Helvetica,sans-Serif" font-size="10.00">string</text>
</g>
<!-- Node1&#45;&gt;Node2 -->
<g id="edge1" class="edge"><title>Node1&#45;&gt;Node2</title>
<path fill="none" stroke="midnightblue" d="M46.381,-56.083C42.0925,-48.6127 35.8418,-37.7244 30.5577,-28.5199"/>
<polygon fill="midnightblue" stroke="midnightblue" points="33.5379,-26.6811 25.5238,-19.7511 27.4671,-30.1662 33.5379,-26.6811"/>
</g>
<!-- Node3 -->
<g id="node3" class="node"><title>Node3</title>
<polygon fill="white" stroke="#bfbfbf" points="59,-0.5 59,-19.5 108,-19.5 108,-0.5 59,-0.5"/>
<text text-anchor="middle" x="83.5" y="-7.5" font-family="Helvetica,sans-Serif" font-size="10.00">istream</text>
</g>
<!-- Node1&#45;&gt;Node3 -->
<g id="edge2" class="edge"><title>Node1&#45;&gt;Node3</title>
<path fill="none" stroke="midnightblue" d="M56.7841,-56.083C61.211,-48.6127 67.6633,-37.7244 73.1179,-28.5199"/>
<polygon fill="midnightblue" stroke="midnightblue" points="76.2271,-30.1383 78.3142,-19.7511 70.2051,-26.5697 76.2271,-30.1383"/>
</g>
</g>
</svg>
