<?xml version="1.0" encoding="UTF-8" standalone="no"?>
<!DOCTYPE svg PUBLIC "-//W3C//DTD SVG 1.1//EN"
 "http://www.w3.org/Graphics/SVG/1.1/DTD/svg11.dtd">
<!-- Generated by graphviz version 2.38.0 (20140413.2041)
 -->
<!-- Title: HwCom.h Pages: 1 -->
<svg width="169pt" height="196pt"
 viewBox="0.00 0.00 169.00 196.00" xmlns="http://www.w3.org/2000/svg" xmlns:xlink="http://www.w3.org/1999/xlink">
<g id="graph0" class="graph" transform="scale(1 1) rotate(0) translate(4 192)">
<title>HwCom.h</title>
<polygon fill="white" stroke="none" points="-4,4 -4,-192 165,-192 165,4 -4,4"/>
<!-- Node0 -->
<g id="node1" class="node"><title>Node0</title>
<polygon fill="#bfbfbf" stroke="black" points="46,-168.5 46,-187.5 105,-187.5 105,-168.5 46,-168.5"/>
<text text-anchor="middle" x="75.5" y="-175.5" font-family="Helvetica,sans-Serif" font-size="10.00">HwCom.h</text>
</g>
<!-- Node1 -->
<g id="node2" class="node"><title>Node1</title>
<g id="a_node2"><a xlink:href="HwPi_8h.html" target="_top" xlink:title="Raspberry Pi model information. ">
<polygon fill="white" stroke="black" points="0,-112.5 0,-131.5 47,-131.5 47,-112.5 0,-112.5"/>
<text text-anchor="middle" x="23.5" y="-119.5" font-family="Helvetica,sans-Serif" font-size="10.00">HwPi.h</text>
</a>
</g>
</g>
<!-- Node0&#45;&gt;Node1 -->
<g id="edge1" class="edge"><title>Node0&#45;&gt;Node1</title>
<path fill="none" stroke="midnightblue" d="M66.9133,-168.083C59.341,-160.22 48.1218,-148.569 38.9856,-139.081"/>
<polygon fill="midnightblue" stroke="midnightblue" points="41.3845,-136.527 31.927,-131.751 36.3423,-141.382 41.3845,-136.527"/>
</g>
<!-- Node2 -->
<g id="node3" class="node"><title>Node2</title>
<g id="a_node3"><a xlink:href="BaBool_8h.html" target="_top" xlink:title="General purpose pure C boolean type. ">
<polygon fill="white" stroke="black" points="41.5,-56.5 41.5,-75.5 97.5,-75.5 97.5,-56.5 41.5,-56.5"/>
<text text-anchor="middle" x="69.5" y="-63.5" font-family="Helvetica,sans-Serif" font-size="10.00">BaBool.h</text>
</a>
</g>
</g>
<!-- Node0&#45;&gt;Node2 -->
<g id="edge4" class="edge"><title>Node0&#45;&gt;Node2</title>
<path fill="none" stroke="midnightblue" d="M75.0292,-168.368C74.0609,-150.617 71.8273,-109.666 70.5144,-85.5974"/>
<polygon fill="midnightblue" stroke="midnightblue" points="74.0082,-85.3859 69.9686,-75.5914 67.0186,-85.7672 74.0082,-85.3859"/>
</g>
<!-- Node4 -->
<g id="node5" class="node"><title>Node4</title>
<g id="a_node5"><a xlink:href="BaCore_8h.html" target="_top" xlink:title="OS level API. ">
<polygon fill="white" stroke="black" points="104,-112.5 104,-131.5 161,-131.5 161,-112.5 104,-112.5"/>
<text text-anchor="middle" x="132.5" y="-119.5" font-family="Helvetica,sans-Serif" font-size="10.00">BaCore.h</text>
</a>
</g>
</g>
<!-- Node0&#45;&gt;Node4 -->
<g id="edge5" class="edge"><title>Node0&#45;&gt;Node4</title>
<path fill="none" stroke="midnightblue" d="M84.658,-168.324C93.0015,-160.42 105.532,-148.548 115.677,-138.938"/>
<polygon fill="midnightblue" stroke="midnightblue" points="118.323,-141.252 123.175,-131.834 113.509,-136.171 118.323,-141.252"/>
</g>
<!-- Node1&#45;&gt;Node2 -->
<g id="edge2" class="edge"><title>Node1&#45;&gt;Node2</title>
<path fill="none" stroke="midnightblue" d="M31.096,-112.083C37.7275,-104.298 47.521,-92.8015 55.5581,-83.3665"/>
<polygon fill="midnightblue" stroke="midnightblue" points="58.225,-85.6332 62.0454,-75.7511 52.8963,-81.0939 58.225,-85.6332"/>
</g>
<!-- Node3 -->
<g id="node4" class="node"><title>Node3</title>
<polygon fill="white" stroke="#bfbfbf" points="45,-0.5 45,-19.5 94,-19.5 94,-0.5 45,-0.5"/>
<text text-anchor="middle" x="69.5" y="-7.5" font-family="Helvetica,sans-Serif" font-size="10.00">stdint.h</text>
</g>
<!-- Node2&#45;&gt;Node3 -->
<g id="edge3" class="edge"><title>Node2&#45;&gt;Node3</title>
<path fill="none" stroke="midnightblue" d="M69.5,-56.083C69.5,-49.0059 69.5,-38.8611 69.5,-29.9865"/>
<polygon fill="midnightblue" stroke="midnightblue" points="73.0001,-29.751 69.5,-19.7511 66.0001,-29.7511 73.0001,-29.751"/>
</g>
<!-- Node4&#45;&gt;Node2 -->
<g id="edge7" class="edge"><title>Node4&#45;&gt;Node2</title>
<path fill="none" stroke="midnightblue" d="M122.378,-112.324C112.974,-104.263 98.7559,-92.0765 87.431,-82.3695"/>
<polygon fill="midnightblue" stroke="midnightblue" points="89.6766,-79.6844 79.8062,-75.8339 85.121,-84.9993 89.6766,-79.6844"/>
</g>
<!-- Node5 -->
<g id="node6" class="node"><title>Node5</title>
<polygon fill="white" stroke="#bfbfbf" points="115.5,-56.5 115.5,-75.5 159.5,-75.5 159.5,-56.5 115.5,-56.5"/>
<text text-anchor="middle" x="137.5" y="-63.5" font-family="Helvetica,sans-Serif" font-size="10.00">time.h</text>
</g>
<!-- Node4&#45;&gt;Node5 -->
<g id="edge6" class="edge"><title>Node4&#45;&gt;Node5</title>
<path fill="none" stroke="midnightblue" d="M133.326,-112.083C133.981,-105.006 134.92,-94.8611 135.742,-85.9865"/>
<polygon fill="midnightblue" stroke="midnightblue" points="139.253,-86.0312 136.69,-75.7511 132.283,-85.3858 139.253,-86.0312"/>
</g>
</g>
</svg>
