<?xml version="1.0" encoding="UTF-8" standalone="no"?>
<!DOCTYPE svg PUBLIC "-//W3C//DTD SVG 1.1//EN"
 "http://www.w3.org/Graphics/SVG/1.1/DTD/svg11.dtd">
<!-- Generated by graphviz version 2.38.0 (20140413.2041)
 -->
<!-- Title: OsDef.h Pages: 1 -->
<svg width="113pt" height="140pt"
 viewBox="0.00 0.00 113.00 140.00" xmlns="http://www.w3.org/2000/svg" xmlns:xlink="http://www.w3.org/1999/xlink">
<g id="graph0" class="graph" transform="scale(1 1) rotate(0) translate(4 136)">
<title>OsDef.h</title>
<polygon fill="white" stroke="none" points="-4,4 -4,-136 109,-136 109,4 -4,4"/>
<!-- Node1 -->
<g id="node1" class="node"><title>Node1</title>
<polygon fill="#bfbfbf" stroke="black" points="0,-112.5 0,-131.5 52,-131.5 52,-112.5 0,-112.5"/>
<text text-anchor="middle" x="26" y="-119.5" font-family="Helvetica,sans-Serif" font-size="10.00">OsDef.h</text>
</g>
<!-- Node2 -->
<g id="node2" class="node"><title>Node2</title>
<g id="a_node2"><a xlink:href="OsIpc_8h.html" target="_top" xlink:title="Inter&#45;process communication module. ">
<polygon fill="white" stroke="black" points="1,-0.5 1,-19.5 51,-19.5 51,-0.5 1,-0.5"/>
<text text-anchor="middle" x="26" y="-7.5" font-family="Helvetica,sans-Serif" font-size="10.00">OsIpc.h</text>
</a>
</g>
</g>
<!-- Node1&#45;&gt;Node2 -->
<g id="edge1" class="edge"><title>Node1&#45;&gt;Node2</title>
<path fill="none" stroke="midnightblue" d="M17.9425,-102.827C14.7948,-94.7781 11.568,-85.0902 10,-76 6.48376,-55.6146 15.5926,-32.1528 21.4698,-19.7482"/>
<polygon fill="midnightblue" stroke="midnightblue" points="14.8055,-104.398 21.8888,-112.277 21.2649,-101.701 14.8055,-104.398"/>
</g>
<!-- Node3 -->
<g id="node3" class="node"><title>Node3</title>
<g id="a_node3"><a xlink:href="OsIpcRegistry_8h.html" target="_top" xlink:title="API for functions and variables registries. ">
<polygon fill="white" stroke="black" points="19,-56.5 19,-75.5 105,-75.5 105,-56.5 19,-56.5"/>
<text text-anchor="middle" x="62" y="-63.5" font-family="Helvetica,sans-Serif" font-size="10.00">OsIpcRegistry.h</text>
</a>
</g>
</g>
<!-- Node1&#45;&gt;Node3 -->
<g id="edge2" class="edge"><title>Node1&#45;&gt;Node3</title>
<path fill="none" stroke="midnightblue" d="M37.6229,-103.566C43.8168,-94.2747 51.1677,-83.2484 56.1659,-75.7511"/>
<polygon fill="midnightblue" stroke="midnightblue" points="34.5795,-101.821 31.9447,-112.083 40.4039,-105.704 34.5795,-101.821"/>
</g>
<!-- Node3&#45;&gt;Node2 -->
<g id="edge3" class="edge"><title>Node3&#45;&gt;Node2</title>
<path fill="none" stroke="midnightblue" d="M50.3771,-47.5656C44.1832,-38.2747 36.8323,-27.2484 31.8341,-19.7511"/>
<polygon fill="midnightblue" stroke="midnightblue" points="47.5961,-49.7039 56.0553,-56.083 53.4205,-45.821 47.5961,-49.7039"/>
</g>
</g>
</svg>
