<?xml version="1.0" encoding="UTF-8" standalone="no"?>
<!DOCTYPE svg PUBLIC "-//W3C//DTD SVG 1.1//EN"
 "http://www.w3.org/Graphics/SVG/1.1/DTD/svg11.dtd">
<!-- Generated by graphviz version 2.38.0 (20140413.2041)
 -->
<!-- Title: OsIpc.h Pages: 1 -->
<svg width="263pt" height="196pt"
 viewBox="0.00 0.00 263.00 196.00" xmlns="http://www.w3.org/2000/svg" xmlns:xlink="http://www.w3.org/1999/xlink">
<g id="graph0" class="graph" transform="scale(1 1) rotate(0) translate(4 192)">
<title>OsIpc.h</title>
<polygon fill="white" stroke="none" points="-4,4 -4,-192 259,-192 259,4 -4,4"/>
<!-- Node0 -->
<g id="node1" class="node"><title>Node0</title>
<polygon fill="#bfbfbf" stroke="black" points="94,-168.5 94,-187.5 144,-187.5 144,-168.5 94,-168.5"/>
<text text-anchor="middle" x="119" y="-175.5" font-family="Helvetica,sans-Serif" font-size="10.00">OsIpc.h</text>
</g>
<!-- Node1 -->
<g id="node2" class="node"><title>Node1</title>
<g id="a_node2"><a xlink:href="OsDef_8h.html" target="_top" xlink:title="API wide defines. ">
<polygon fill="white" stroke="black" points="0,-56.5 0,-75.5 52,-75.5 52,-56.5 0,-56.5"/>
<text text-anchor="middle" x="26" y="-63.5" font-family="Helvetica,sans-Serif" font-size="10.00">OsDef.h</text>
</a>
</g>
</g>
<!-- Node0&#45;&gt;Node1 -->
<g id="edge1" class="edge"><title>Node0&#45;&gt;Node1</title>
<path fill="none" stroke="midnightblue" d="M106.953,-168.23C95.795,-159.744 79.1414,-146.123 67,-132 54.2619,-117.183 42.6799,-98.0458 35.1001,-84.381"/>
<polygon fill="midnightblue" stroke="midnightblue" points="38.1576,-82.6767 30.3289,-75.538 31.9971,-86.0006 38.1576,-82.6767"/>
</g>
<!-- Node2 -->
<g id="node3" class="node"><title>Node2</title>
<g id="a_node3"><a xlink:href="OsIpcRegistry_8h.html" target="_top" xlink:title="API for functions and variables registries. ">
<polygon fill="white" stroke="black" points="76,-112.5 76,-131.5 162,-131.5 162,-112.5 76,-112.5"/>
<text text-anchor="middle" x="119" y="-119.5" font-family="Helvetica,sans-Serif" font-size="10.00">OsIpcRegistry.h</text>
</a>
</g>
</g>
<!-- Node0&#45;&gt;Node2 -->
<g id="edge2" class="edge"><title>Node0&#45;&gt;Node2</title>
<path fill="none" stroke="midnightblue" d="M119,-168.083C119,-161.006 119,-150.861 119,-141.986"/>
<polygon fill="midnightblue" stroke="midnightblue" points="122.5,-141.751 119,-131.751 115.5,-141.751 122.5,-141.751"/>
</g>
<!-- Node5 -->
<g id="node6" class="node"><title>Node5</title>
<g id="a_node6"><a xlink:href="BaBool_8h.html" target="_top" xlink:title="General purpose pure C boolean type. ">
<polygon fill="white" stroke="black" points="199,-56.5 199,-75.5 255,-75.5 255,-56.5 199,-56.5"/>
<text text-anchor="middle" x="227" y="-63.5" font-family="Helvetica,sans-Serif" font-size="10.00">BaBool.h</text>
</a>
</g>
</g>
<!-- Node0&#45;&gt;Node5 -->
<g id="edge8" class="edge"><title>Node0&#45;&gt;Node5</title>
<path fill="none" stroke="midnightblue" d="M129.761,-168.466C140.568,-159.72 157.508,-145.522 171,-132 186.535,-116.431 202.779,-97.1978 213.746,-83.7067"/>
<polygon fill="midnightblue" stroke="midnightblue" points="216.592,-85.753 220.131,-75.7666 211.137,-81.3665 216.592,-85.753"/>
</g>
<!-- Node2&#45;&gt;Node1 -->
<g id="edge7" class="edge"><title>Node2&#45;&gt;Node1</title>
<path fill="none" stroke="midnightblue" d="M104.058,-112.324C89.4148,-103.822 66.8663,-90.7288 49.7623,-80.7975"/>
<polygon fill="midnightblue" stroke="midnightblue" points="51.3104,-77.6491 40.905,-75.6545 47.7954,-83.7027 51.3104,-77.6491"/>
</g>
<!-- Node3 -->
<g id="node4" class="node"><title>Node3</title>
<polygon fill="white" stroke="#bfbfbf" points="70.5,-56.5 70.5,-75.5 121.5,-75.5 121.5,-56.5 70.5,-56.5"/>
<text text-anchor="middle" x="96" y="-63.5" font-family="Helvetica,sans-Serif" font-size="10.00">stddef.h</text>
</g>
<!-- Node2&#45;&gt;Node3 -->
<g id="edge3" class="edge"><title>Node2&#45;&gt;Node3</title>
<path fill="none" stroke="midnightblue" d="M115.202,-112.083C112.087,-104.77 107.577,-94.1814 103.711,-85.1034"/>
<polygon fill="midnightblue" stroke="midnightblue" points="106.866,-83.5798 99.7273,-75.7511 100.426,-86.3229 106.866,-83.5798"/>
</g>
<!-- Node4 -->
<g id="node5" class="node"><title>Node4</title>
<polygon fill="white" stroke="#bfbfbf" points="139.5,-56.5 139.5,-75.5 180.5,-75.5 180.5,-56.5 139.5,-56.5"/>
<text text-anchor="middle" x="160" y="-63.5" font-family="Helvetica,sans-Serif" font-size="10.00">string</text>
</g>
<!-- Node2&#45;&gt;Node4 -->
<g id="edge4" class="edge"><title>Node2&#45;&gt;Node4</title>
<path fill="none" stroke="midnightblue" d="M125.77,-112.083C131.562,-104.455 140.058,-93.2645 147.138,-83.9408"/>
<polygon fill="midnightblue" stroke="midnightblue" points="150.096,-85.8321 153.356,-75.7511 144.521,-81.5991 150.096,-85.8321"/>
</g>
<!-- Node2&#45;&gt;Node5 -->
<g id="edge5" class="edge"><title>Node2&#45;&gt;Node5</title>
<path fill="none" stroke="midnightblue" d="M136.352,-112.324C153.672,-103.664 180.515,-90.2424 200.502,-80.249"/>
<polygon fill="midnightblue" stroke="midnightblue" points="202.312,-83.2572 209.691,-75.6545 199.181,-76.9962 202.312,-83.2572"/>
</g>
<!-- Node6 -->
<g id="node7" class="node"><title>Node6</title>
<polygon fill="white" stroke="#bfbfbf" points="202.5,-0.5 202.5,-19.5 251.5,-19.5 251.5,-0.5 202.5,-0.5"/>
<text text-anchor="middle" x="227" y="-7.5" font-family="Helvetica,sans-Serif" font-size="10.00">stdint.h</text>
</g>
<!-- Node5&#45;&gt;Node6 -->
<g id="edge6" class="edge"><title>Node5&#45;&gt;Node6</title>
<path fill="none" stroke="midnightblue" d="M227,-56.083C227,-49.0059 227,-38.8611 227,-29.9865"/>
<polygon fill="midnightblue" stroke="midnightblue" points="230.5,-29.751 227,-19.7511 223.5,-29.7511 230.5,-29.751"/>
</g>
</g>
</svg>
