<?xml version="1.0" encoding="UTF-8" standalone="no"?>
<!DOCTYPE svg PUBLIC "-//W3C//DTD SVG 1.1//EN"
 "http://www.w3.org/Graphics/SVG/1.1/DTD/svg11.dtd">
<!-- Generated by graphviz version 2.38.0 (20140413.2041)
 -->
<!-- Title: OsIpcRegistry.h Pages: 1 -->
<svg width="263pt" height="140pt"
 viewBox="0.00 0.00 262.50 140.00" xmlns="http://www.w3.org/2000/svg" xmlns:xlink="http://www.w3.org/1999/xlink">
<g id="graph0" class="graph" transform="scale(1 1) rotate(0) translate(4 136)">
<title>OsIpcRegistry.h</title>
<polygon fill="white" stroke="none" points="-4,4 -4,-136 258.5,-136 258.5,4 -4,4"/>
<!-- Node0 -->
<g id="node1" class="node"><title>Node0</title>
<polygon fill="#bfbfbf" stroke="black" points="79.5,-112.5 79.5,-131.5 165.5,-131.5 165.5,-112.5 79.5,-112.5"/>
<text text-anchor="middle" x="122.5" y="-119.5" font-family="Helvetica,sans-Serif" font-size="10.00">OsIpcRegistry.h</text>
</g>
<!-- Node1 -->
<g id="node2" class="node"><title>Node1</title>
<polygon fill="white" stroke="#bfbfbf" points="0,-56.5 0,-75.5 51,-75.5 51,-56.5 0,-56.5"/>
<text text-anchor="middle" x="25.5" y="-63.5" font-family="Helvetica,sans-Serif" font-size="10.00">stddef.h</text>
</g>
<!-- Node0&#45;&gt;Node1 -->
<g id="edge1" class="edge"><title>Node0&#45;&gt;Node1</title>
<path fill="none" stroke="midnightblue" d="M106.915,-112.324C91.5009,-103.743 67.6878,-90.486 49.7903,-80.5224"/>
<polygon fill="midnightblue" stroke="midnightblue" points="51.4858,-77.4606 41.0461,-75.6545 48.0809,-83.5767 51.4858,-77.4606"/>
</g>
<!-- Node2 -->
<g id="node3" class="node"><title>Node2</title>
<polygon fill="white" stroke="#bfbfbf" points="69,-56.5 69,-75.5 110,-75.5 110,-56.5 69,-56.5"/>
<text text-anchor="middle" x="89.5" y="-63.5" font-family="Helvetica,sans-Serif" font-size="10.00">string</text>
</g>
<!-- Node0&#45;&gt;Node2 -->
<g id="edge2" class="edge"><title>Node0&#45;&gt;Node2</title>
<path fill="none" stroke="midnightblue" d="M117.051,-112.083C112.486,-104.613 105.832,-93.7244 100.207,-84.5199"/>
<polygon fill="midnightblue" stroke="midnightblue" points="103.049,-82.4588 94.8479,-75.7511 97.0759,-86.109 103.049,-82.4588"/>
</g>
<!-- Node3 -->
<g id="node4" class="node"><title>Node3</title>
<g id="a_node4"><a xlink:href="BaBool_8h.html" target="_top" xlink:title="General purpose pure C boolean type. ">
<polygon fill="white" stroke="black" points="128.5,-56.5 128.5,-75.5 184.5,-75.5 184.5,-56.5 128.5,-56.5"/>
<text text-anchor="middle" x="156.5" y="-63.5" font-family="Helvetica,sans-Serif" font-size="10.00">BaBool.h</text>
</a>
</g>
</g>
<!-- Node0&#45;&gt;Node3 -->
<g id="edge3" class="edge"><title>Node0&#45;&gt;Node3</title>
<path fill="none" stroke="midnightblue" d="M128.114,-112.083C132.867,-104.534 139.818,-93.4948 145.652,-84.2298"/>
<polygon fill="midnightblue" stroke="midnightblue" points="148.624,-86.0783 150.99,-75.7511 142.7,-82.3486 148.624,-86.0783"/>
</g>
<!-- Node5 -->
<g id="node6" class="node"><title>Node5</title>
<g id="a_node6"><a xlink:href="OsDef_8h.html" target="_top" xlink:title="API wide defines. ">
<polygon fill="white" stroke="black" points="202.5,-56.5 202.5,-75.5 254.5,-75.5 254.5,-56.5 202.5,-56.5"/>
<text text-anchor="middle" x="228.5" y="-63.5" font-family="Helvetica,sans-Serif" font-size="10.00">OsDef.h</text>
</a>
</g>
</g>
<!-- Node0&#45;&gt;Node5 -->
<g id="edge5" class="edge"><title>Node0&#45;&gt;Node5</title>
<path fill="none" stroke="midnightblue" d="M139.531,-112.324C156.53,-103.664 182.876,-90.2424 202.493,-80.249"/>
<polygon fill="midnightblue" stroke="midnightblue" points="204.19,-83.3125 211.512,-75.6545 201.012,-77.0752 204.19,-83.3125"/>
</g>
<!-- Node4 -->
<g id="node5" class="node"><title>Node4</title>
<polygon fill="white" stroke="#bfbfbf" points="132,-0.5 132,-19.5 181,-19.5 181,-0.5 132,-0.5"/>
<text text-anchor="middle" x="156.5" y="-7.5" font-family="Helvetica,sans-Serif" font-size="10.00">stdint.h</text>
</g>
<!-- Node3&#45;&gt;Node4 -->
<g id="edge4" class="edge"><title>Node3&#45;&gt;Node4</title>
<path fill="none" stroke="midnightblue" d="M156.5,-56.083C156.5,-49.0059 156.5,-38.8611 156.5,-29.9865"/>
<polygon fill="midnightblue" stroke="midnightblue" points="160,-29.751 156.5,-19.7511 153,-29.7511 160,-29.751"/>
</g>
</g>
</svg>
